<?xml version="1.0" standalone="no"?>
<!DOCTYPE svg PUBLIC "-//W3C//DTD SVG 20010904//EN"
 "http://www.w3.org/TR/2001/REC-SVG-20010904/DTD/svg10.dtd">
<svg version="1.0" xmlns="http://www.w3.org/2000/svg"
 width="381.000000pt" height="78.000000pt" viewBox="0 0 381.000000 78.000000"
 preserveAspectRatio="xMidYMid meet">

<g transform="translate(0.000000,78.000000) scale(0.100000,-0.100000)"
fill="#000000" stroke="none">
<path d="M2561 650 c-59 -13 -112 -51 -141 -103 -20 -35 -25 -59 -28 -144 -4
-92 -2 -107 21 -156 19 -42 35 -61 68 -80 118 -67 279 -31 339 76 21 35 25 59
28 147 3 99 2 108 -25 160 -22 43 -38 59 -73 77 -53 26 -128 35 -189 23z m128
-85 c42 -21 62 -73 63 -160 0 -134 -41 -195 -130 -195 -97 0 -132 47 -132 178
0 94 14 138 55 170 33 26 102 29 144 7z"/>
<path d="M143 644 c-10 -4 -13 -64 -13 -250 l0 -244 24 -6 c13 -3 37 -4 52 -2
l29 3 0 250 0 250 -40 2 c-22 1 -46 0 -52 -3z"/>
<path d="M357 643 c-4 -3 -7 -118 -7 -255 l0 -249 43 3 42 3 0 197 c0 108 1
196 2 195 1 -2 43 -83 94 -182 50 -99 99 -188 107 -198 12 -14 28 -17 66 -15
l51 3 3 253 2 253 -42 -3 -43 -3 -3 -175 -3 -175 -82 156 c-45 87 -91 166
-101 178 -15 16 -31 21 -71 21 -28 0 -55 -3 -58 -7z"/>
<path d="M881 632 c-14 -27 -15 -446 -1 -473 9 -17 22 -19 100 -19 130 0 184
14 237 63 56 52 77 119 71 224 -6 96 -41 156 -113 192 -43 23 -65 26 -166 30
-110 3 -118 2 -128 -17z m229 -80 c51 -25 73 -71 73 -150 2 -121 -51 -182
-155 -182 l-48 0 0 175 0 175 48 0 c26 0 63 -8 82 -18z"/>
<path d="M1383 644 c-10 -4 -13 -64 -13 -250 l0 -244 24 -6 c13 -3 37 -4 52
-2 l29 3 0 250 0 250 -40 2 c-22 1 -46 0 -52 -3z"/>
<path d="M1705 638 c-74 -205 -164 -483 -157 -490 5 -5 27 -8 48 -6 38 3 39 5
57 61 l19 58 95 -3 96 -3 16 -45 c23 -66 28 -70 77 -70 36 0 44 3 44 18 0 18
-152 461 -165 482 -9 15 -125 13 -130 -2z m99 -196 l35 -102 -70 0 c-38 0 -69
3 -69 7 0 13 64 202 67 199 2 -2 19 -49 37 -104z"/>
<path d="M2083 643 c-10 -3 -13 -63 -13 -249 l0 -244 23 -5 c12 -3 72 -5 132
-3 l110 3 0 35 0 35 -87 3 -88 3 0 208 c0 181 -2 210 -16 215 -18 7 -43 7 -61
-1z"/>
<path d="M2958 644 c-5 -4 -8 -117 -8 -250 l0 -244 24 -6 c14 -3 34 -3 45 1
19 6 21 14 21 106 l0 99 37 0 c49 0 66 -18 104 -113 18 -45 37 -85 43 -89 14
-10 68 -10 83 0 16 10 -49 167 -84 204 -15 15 -25 29 -22 31 2 2 16 11 31 20
40 25 61 72 55 124 -9 86 -59 114 -212 121 -60 2 -113 1 -117 -4z m212 -94
c11 -11 20 -33 20 -50 0 -48 -30 -70 -95 -70 l-55 0 0 70 0 70 55 0 c42 0 60
-5 75 -20z"/>
<path d="M3405 638 c-3 -8 -4 -121 -3 -253 l3 -240 140 0 140 0 0 35 0 35 -97
3 -98 3 0 74 0 74 83 3 82 3 0 35 0 35 -82 3 -83 3 0 59 0 59 98 3 97 3 0 35
0 35 -138 3 c-105 2 -139 0 -142 -10z"/>
</g>
</svg>
