<?xml version="1.0" standalone="no"?>
<!DOCTYPE svg PUBLIC "-//W3C//DTD SVG 20010904//EN"
 "http://www.w3.org/TR/2001/REC-SVG-20010904/DTD/svg10.dtd">
<svg version="1.0" xmlns="http://www.w3.org/2000/svg"
 width="1200.000000pt" height="1200.000000pt" viewBox="0 0 1200.000000 1200.000000"
 preserveAspectRatio="xMidYMid meet">

<g transform="translate(0.000000,1200.000000) scale(0.100000,-0.100000)"
fill="#000000" stroke="none">
<path d="M6470 10456 c-65 -19 -124 -51 -215 -116 -44 -32 -96 -66 -115 -76
l-35 -17 40 -18 c22 -10 46 -19 54 -19 8 0 52 27 97 60 147 107 240 137 330
106 27 -9 60 -25 74 -35 24 -19 25 -19 64 1 l39 20 -29 24 c-82 68 -211 98
-304 70z"/>
<path d="M5165 10426 c-96 -30 -174 -94 -252 -205 -25 -36 -64 -84 -85 -107
l-39 -41 47 -7 c57 -7 57 -8 145 111 110 149 206 201 320 175 48 -11 52 -11
84 15 40 32 37 35 -51 58 -69 18 -115 18 -169 1z"/>
<path d="M5468 10327 c-16 -13 -28 -25 -28 -28 0 -9 98 -72 161 -105 l54 -28
-75 -8 c-216 -23 -483 -73 -666 -124 -71 -20 -154 -37 -184 -39 -30 -1 -86
-14 -125 -29 -91 -33 -224 -36 -336 -6 -41 11 -79 20 -84 20 -12 0 -50 -59
-42 -66 7 -8 198 -54 226 -55 21 0 17 -4 -24 -22 -187 -79 -496 -249 -685
-376 -46 -32 -86 -51 -104 -51 -19 0 -43 -14 -78 -45 -92 -82 -241 -135 -383
-135 -59 0 -59 0 -70 -49 l-7 -34 103 7 c57 3 117 9 133 13 24 5 14 -8 -60
-74 -136 -122 -319 -316 -434 -459 -59 -74 -117 -137 -136 -147 -19 -9 -42
-34 -53 -55 -50 -97 -158 -185 -302 -244 l-79 -32 0 -42 0 -42 75 29 c41 15
93 38 116 49 22 12 42 20 44 18 2 -2 -10 -26 -27 -53 -93 -148 -245 -469 -318
-670 -18 -49 -43 -102 -57 -116 -14 -16 -30 -52 -39 -89 -28 -119 -114 -241
-238 -336 -38 -30 -39 -31 -27 -67 7 -20 15 -37 18 -37 10 0 88 63 140 114 29
28 53 45 53 38 0 -7 -9 -52 -20 -100 -32 -147 -69 -426 -81 -622 -6 -102 -16
-194 -22 -205 -6 -11 -10 -60 -8 -110 3 -128 -27 -225 -110 -347 -22 -32 -39
-61 -39 -64 0 -3 11 -19 25 -35 l24 -29 39 57 c22 32 52 83 68 113 l28 55 13
-118 c26 -239 75 -495 138 -712 14 -48 23 -96 19 -107 -3 -12 5 -43 20 -77 49
-110 53 -259 11 -399 -21 -66 -19 -75 16 -96 17 -10 32 -16 33 -14 2 3 33 124
54 212 7 27 9 24 41 -50 86 -198 196 -399 332 -610 44 -66 79 -128 79 -137 0
-9 21 -40 46 -69 83 -93 133 -236 134 -380 0 -37 3 -69 8 -71 4 -3 22 -8 41
-12 l34 -7 -6 103 c-4 57 -10 115 -14 129 -5 19 7 10 48 -35 169 -189 371
-378 546 -514 46 -35 85 -71 88 -80 3 -9 24 -25 47 -36 101 -48 207 -180 256
-317 l27 -78 42 0 42 0 -25 68 c-14 37 -34 86 -44 109 -10 24 -17 43 -15 43 2
0 60 -31 127 -69 217 -121 366 -190 587 -272 57 -22 109 -43 115 -48 6 -5 36
-14 67 -20 96 -20 192 -73 268 -148 37 -38 81 -86 98 -107 29 -39 31 -39 62
-27 17 8 31 18 31 23 0 11 -58 86 -109 141 -19 20 -32 37 -29 37 4 0 35 -7 70
-15 252 -58 605 -95 953 -99 163 -2 200 -13 338 -100 l84 -53 27 19 c14 11 26
23 26 27 0 9 -85 68 -149 104 l-43 25 63 7 c35 4 107 13 159 20 52 8 118 17
145 20 129 17 501 111 610 155 140 57 249 60 417 11 l67 -19 20 34 20 33 -70
21 c-39 12 -89 25 -112 29 l-42 7 65 29 c234 105 473 237 653 361 43 30 81 54
84 54 2 0 30 23 61 51 103 91 236 138 389 139 71 0 73 1 79 27 3 16 8 34 10
42 4 12 -14 13 -107 8 l-112 -7 161 155 c155 150 252 256 379 417 33 42 66 82
72 90 6 7 33 47 59 88 27 42 71 95 98 118 52 44 160 101 233 123 49 14 57 28
45 69 l-9 29 -100 -39 c-55 -22 -101 -40 -102 -40 -2 0 10 21 26 48 153 254
315 623 381 867 11 44 33 102 48 129 28 51 127 159 196 211 l38 30 -16 39 -16
38 -52 -43 c-29 -23 -68 -56 -85 -73 -38 -34 -38 -32 -18 65 16 76 40 211 55
314 19 127 31 338 31 519 0 238 15 298 110 438 22 32 39 64 39 71 0 7 -11 24
-24 36 l-24 23 -33 -49 c-18 -26 -46 -70 -60 -97 l-27 -49 -7 59 c-4 32 -13
102 -20 154 -8 52 -17 118 -20 145 -9 70 -62 301 -95 415 -15 52 -30 109 -33
125 -3 17 -18 59 -33 95 -27 61 -29 73 -28 200 0 109 4 147 21 197 l21 62 -35
21 c-20 11 -37 20 -38 18 -1 -2 -12 -43 -25 -93 -12 -49 -24 -97 -27 -105 -2
-8 -46 71 -97 175 -99 202 -179 343 -282 492 -35 51 -64 100 -64 109 0 9 -23
42 -52 73 -28 31 -64 83 -80 117 -33 70 -58 189 -58 274 0 51 -2 58 -22 64
-55 14 -58 11 -57 -61 0 -38 4 -88 8 -113 l7 -45 -195 196 c-109 109 -256 243
-331 303 -74 59 -138 116 -142 126 -4 11 -29 30 -55 44 -107 54 -187 149 -252
301 -21 50 -44 90 -50 89 -6 -1 -22 -2 -36 -2 -14 -1 -25 -8 -25 -14 0 -10 45
-124 77 -197 3 -7 -27 5 -68 28 -205 116 -448 229 -639 298 -52 19 -104 43
-115 53 -11 10 -51 26 -89 34 -125 29 -245 113 -343 241 l-31 40 -37 -18 -36
-17 32 -43 c18 -23 55 -66 83 -96 28 -30 43 -51 32 -47 -29 10 -268 53 -392
70 -60 8 -195 20 -300 27 -104 6 -199 16 -211 22 -13 5 -76 11 -140 12 -137 1
-203 21 -323 100 -39 25 -72 45 -73 45 -1 -1 -14 -11 -29 -23z m976 -231 c463
-51 914 -179 1339 -380 140 -66 357 -188 447 -251 36 -25 108 -74 161 -109
270 -179 708 -597 843 -805 24 -36 63 -88 87 -116 63 -71 84 -101 189 -270
168 -271 310 -566 350 -727 11 -46 36 -117 56 -158 39 -81 119 -387 153 -581
38 -213 53 -385 46 -512 -5 -79 -3 -139 5 -184 14 -72 3 -312 -26 -548 -22
-180 -80 -458 -108 -513 -34 -68 -54 -132 -67 -215 -12 -76 -22 -104 -117
-337 -114 -279 -265 -551 -367 -662 -37 -40 -78 -100 -103 -150 -99 -195 -581
-702 -756 -794 -40 -21 -101 -68 -145 -109 -172 -164 -771 -493 -959 -526 -84
-15 -149 -37 -217 -75 -43 -23 -117 -47 -265 -83 -346 -84 -590 -116 -801
-106 -92 5 -155 3 -198 -6 -98 -19 -470 10 -731 57 -158 29 -302 66 -363 94
-34 15 -107 37 -162 49 -246 52 -839 338 -1023 494 -31 26 -82 62 -112 79
-210 119 -681 567 -833 793 -22 33 -61 85 -87 115 -57 67 -123 165 -222 330
-292 485 -485 1061 -554 1655 -22 185 -25 671 -6 845 59 532 184 972 407 1425
445 906 1209 1618 2145 2000 154 63 385 139 550 180 231 58 447 91 780 119 97
8 532 -4 664 -18z"/>
<path d="M5725 10059 c-1555 -99 -2934 -1108 -3509 -2567 -192 -487 -279 -950
-279 -1487 -1 -277 9 -408 49 -655 270 -1685 1576 -3026 3254 -3344 521 -99
1037 -96 1565 9 1654 329 2941 1667 3209 3335 40 247 50 378 49 655 0 376 -31
637 -119 988 -257 1024 -902 1906 -1803 2466 -719 446 -1558 654 -2416 600z
m166 -197 l-41 -70 68 -116 c36 -64 69 -116 72 -116 8 1 130 217 130 230 0 7
-16 40 -35 74 -36 65 -42 86 -25 86 9 0 30 -30 76 -106 9 -15 15 -11 43 39 23
40 39 57 53 57 19 0 19 -1 -3 -37 -12 -21 -29 -47 -36 -58 -7 -11 -13 -23 -13
-27 0 -5 34 -8 75 -8 68 0 75 -2 75 -20 0 -19 -7 -20 -89 -20 l-89 0 -45 -77
c-25 -43 -55 -95 -67 -115 l-22 -38 139 0 139 0 43 75 c24 41 47 75 52 75 16
0 9 -33 -16 -76 l-25 -43 52 -16 c28 -8 76 -15 106 -15 l55 0 -7 33 c-19 85
-19 100 -5 95 7 -2 22 -39 34 -80 11 -42 23 -80 27 -84 10 -9 251 -74 256 -69
5 5 -47 211 -59 236 -5 9 -21 20 -36 23 -104 25 -133 37 -133 56 0 24 0 24 83
1 76 -21 75 -21 51 58 -8 29 -13 55 -10 58 15 16 34 -12 46 -66 7 -34 16 -61
19 -61 4 0 29 22 56 50 33 33 52 47 59 40 7 -7 -9 -30 -49 -70 l-58 -59 33
-126 c18 -69 36 -128 40 -130 3 -2 49 38 100 90 l94 94 -22 78 c-12 45 -18 81
-13 86 11 11 31 0 31 -17 0 -7 7 -36 16 -66 l16 -53 48 48 c35 34 53 46 66 41
15 -6 9 -15 -34 -59 l-52 -53 70 -18 c76 -20 83 -25 70 -46 -8 -13 -21 -12
-92 7 l-83 22 -92 -91 c-51 -51 -91 -94 -89 -96 2 -2 62 -19 132 -38 l129 -34
60 60 c33 33 64 60 68 60 16 0 5 -23 -33 -64 l-40 -43 58 -30 c31 -17 71 -33
87 -37 17 -4 38 -9 48 -12 15 -5 17 2 17 60 0 37 4 66 10 66 6 0 10 -36 10
-89 l0 -89 118 -67 c64 -37 120 -70 125 -72 4 -2 7 60 7 139 l0 144 -75 43
c-41 23 -75 47 -75 52 0 14 9 11 76 -26 34 -19 65 -35 68 -35 3 0 6 32 6 71 0
52 3 70 13 67 7 -3 13 -29 15 -71 2 -37 6 -67 10 -67 4 0 30 14 57 30 28 16
56 30 63 30 27 0 8 -17 -58 -53 l-70 -38 0 -145 0 -145 63 36 c34 19 88 50
119 68 l58 32 0 88 c0 66 3 88 13 85 8 -3 13 -30 15 -76 2 -40 5 -72 8 -72 2
0 28 14 57 30 57 32 67 35 67 21 0 -5 -28 -25 -62 -44 l-62 -35 35 -17 c66
-34 110 -66 104 -75 -3 -5 -40 11 -81 36 l-76 44 -124 -71 c-69 -40 -123 -73
-122 -74 2 -2 44 -26 93 -55 50 -29 104 -61 120 -71 l31 -18 74 44 c41 23 78
41 83 38 13 -8 -2 -21 -54 -49 l-50 -28 42 -42 c37 -38 136 -101 143 -92 2 1
11 29 20 61 9 31 21 57 26 57 13 0 13 3 -11 -96 l-22 -86 99 -99 c63 -64 101
-94 105 -86 3 6 21 68 39 135 l33 124 -62 62 c-33 34 -61 65 -61 69 0 19 31 2
75 -43 26 -27 51 -47 55 -45 4 2 13 29 20 60 13 52 25 73 36 62 3 -2 -3 -32
-12 -66 -10 -33 -15 -64 -12 -67 4 -3 34 2 68 12 41 11 64 14 71 7 7 -7 -13
-16 -62 -29 -39 -10 -77 -23 -84 -29 -20 -16 -87 -278 -69 -271 8 3 70 20 139
38 l124 32 22 83 c12 46 26 83 31 83 12 0 10 -30 -8 -89 -8 -29 -13 -55 -10
-58 3 -3 34 1 68 10 82 21 101 4 22 -18 -33 -9 -65 -18 -73 -21 -10 -3 1 -21
37 -57 47 -48 64 -77 45 -77 -4 0 -35 27 -69 61 l-61 60 -133 -35 c-73 -19
-134 -37 -136 -39 -2 -1 42 -48 96 -102 l100 -100 82 22 c77 20 104 22 94 4
-3 -4 -30 -13 -61 -20 -30 -7 -55 -15 -55 -19 0 -19 63 -112 98 -145 l39 -38
32 56 c17 31 36 53 42 50 9 -6 0 -26 -61 -130 l-18 -30 65 -110 c35 -60 68
-116 72 -123 5 -10 30 24 76 105 38 65 69 121 71 124 2 3 -17 40 -41 82 -24
42 -40 79 -35 82 9 6 41 -39 75 -104 l17 -34 33 57 c39 69 55 87 55 63 0 -9
-13 -39 -30 -67 -16 -28 -30 -53 -30 -55 0 -2 32 -5 72 -7 45 -2 73 -8 75 -15
3 -9 -20 -13 -83 -15 l-88 -3 -67 -115 -67 -115 81 -7 c45 -3 108 -6 140 -7
53 -1 59 1 75 28 65 110 76 125 79 110 2 -10 -10 -39 -26 -67 -17 -27 -31 -54
-31 -61 0 -7 24 -11 70 -11 40 0 70 -4 70 -10 0 -6 -31 -10 -74 -10 l-75 0 40
-67 c41 -71 45 -83 30 -83 -5 0 -29 34 -52 75 l-43 75 -144 0 c-79 0 -141 -3
-139 -7 2 -5 35 -61 72 -125 l67 -118 89 0 c53 0 89 -4 89 -10 0 -6 -29 -10
-66 -10 -58 0 -65 -2 -60 -17 3 -10 8 -31 12 -48 6 -28 41 -101 63 -135 9 -12
18 -7 55 29 25 25 49 42 53 38 4 -4 -21 -36 -55 -70 l-62 -62 37 -138 c21 -75
40 -137 43 -137 3 0 49 44 102 98 l98 97 -25 88 c-18 65 -20 87 -11 87 8 0 21
-28 31 -67 10 -38 20 -72 23 -76 2 -5 28 14 57 43 29 29 55 48 58 43 4 -5 -16
-31 -43 -58 -27 -27 -47 -51 -45 -55 2 -4 31 -13 65 -20 33 -7 65 -19 71 -26
16 -19 1 -18 -91 6 l-75 19 -97 -97 c-54 -53 -98 -99 -98 -102 0 -3 61 -21
135 -41 l134 -35 58 58 c31 32 61 58 65 58 20 0 4 -29 -42 -75 l-50 -51 70
-18 c43 -11 70 -23 70 -31 0 -11 -14 -10 -67 6 -38 10 -71 19 -74 19 -4 0 2
-34 13 -76 18 -73 18 -99 -1 -78 -5 5 -16 42 -26 82 -10 43 -24 76 -34 81 -24
13 -252 73 -257 68 -5 -5 50 -218 65 -252 6 -15 29 -26 82 -39 74 -19 98 -30
87 -41 -5 -6 -46 3 -110 21 -16 5 -18 -2 -18 -50 0 -31 7 -83 16 -115 l17 -60
52 30 c56 31 65 34 65 19 0 -5 -34 -29 -75 -52 l-75 -43 0 -143 c0 -79 3 -141
8 -139 4 2 60 34 125 71 l117 68 0 89 c0 53 4 89 10 89 6 0 10 -33 10 -80 0
-44 3 -80 8 -80 4 0 33 16 65 35 65 39 67 40 67 22 0 -7 -27 -27 -60 -45 -33
-19 -60 -35 -60 -37 0 -2 29 -20 65 -40 36 -20 65 -40 65 -45 0 -17 -16 -11
-88 30 l-70 41 -113 -66 c-63 -37 -117 -70 -121 -74 -7 -6 199 -131 230 -139
7 -2 45 15 83 38 65 39 90 46 75 21 -4 -5 -31 -24 -61 -41 -30 -17 -55 -35
-55 -40 0 -4 25 -22 55 -39 30 -17 55 -38 55 -46 0 -10 -16 -5 -59 20 -33 19
-62 35 -65 35 -3 0 -6 -35 -8 -77 -4 -108 -22 -99 -26 12 l-3 90 -118 68 c-65
37 -121 67 -125 67 -3 0 -6 -63 -6 -139 l0 -140 75 -42 c41 -24 75 -49 75 -57
0 -10 -16 -5 -56 18 -31 17 -57 30 -59 28 -11 -13 -35 -126 -35 -168 l0 -52
33 6 c74 16 97 18 97 9 0 -6 -38 -20 -84 -33 l-84 -22 -35 -136 c-20 -75 -35
-137 -34 -137 1 -1 62 14 136 34 l135 37 23 83 c23 86 29 99 39 88 4 -3 -2
-42 -13 -85 l-20 -80 69 20 c38 11 72 17 75 14 9 -9 -7 -24 -34 -30 -16 -4
-46 -12 -67 -17 l-39 -11 52 -52 c28 -28 51 -58 51 -66 0 -8 -29 14 -64 49
l-63 62 -133 -35 c-73 -19 -134 -37 -136 -39 -2 -1 41 -47 95 -101 l99 -99 64
16 c34 9 73 20 86 23 17 5 21 3 16 -9 -3 -8 -35 -23 -75 -33 l-69 -18 45 -46
c25 -25 45 -54 45 -65 0 -15 -13 -7 -55 35 -38 37 -56 49 -59 39 -3 -8 -12
-42 -22 -76 -9 -35 -21 -63 -25 -63 -14 0 -11 29 11 105 l20 70 -97 97 c-54
54 -100 98 -103 98 -3 0 -21 -61 -40 -135 l-35 -135 63 -63 c34 -35 59 -66 55
-70 -4 -4 -28 13 -54 39 l-47 46 -27 -46 c-26 -45 -55 -125 -55 -153 0 -9 16
-13 60 -13 47 0 60 -3 60 -15 0 -12 -17 -15 -89 -15 l-89 0 -66 -115 c-36 -63
-66 -117 -66 -120 0 -3 63 -5 139 -5 l139 0 44 75 c41 71 58 90 58 63 0 -6
-16 -40 -35 -75 l-36 -63 71 0 c56 0 70 -3 70 -15 0 -12 -14 -15 -70 -15 -67
0 -80 -5 -62 -25 26 -30 60 -103 53 -114 -6 -9 -22 11 -50 63 l-42 76 -144 0
-143 0 71 -125 72 -125 83 0 c48 0 82 -4 82 -10 0 -6 -32 -10 -76 -10 l-75 0
30 -54 c30 -51 41 -93 22 -82 -5 3 -23 31 -41 62 -17 31 -33 54 -35 53 -1 -2
-19 -32 -39 -66 -33 -57 -56 -79 -56 -54 0 5 18 41 41 80 l41 72 -68 119 c-38
66 -71 120 -74 120 -3 0 -36 -54 -74 -120 l-68 -119 41 -72 c23 -39 41 -75 41
-80 0 -23 -21 -4 -47 41 -15 27 -30 50 -33 50 -13 0 -89 -88 -113 -131 l-26
-46 59 -17 c33 -9 60 -21 60 -26 0 -14 -16 -13 -99 11 l-75 20 -98 -98 c-54
-53 -94 -100 -90 -103 8 -8 237 -70 255 -70 7 0 39 27 72 60 39 40 63 56 69
50 7 -7 -7 -28 -42 -63 -53 -53 -61 -67 -41 -67 6 0 36 -7 66 -16 38 -11 52
-19 45 -26 -8 -8 -29 -6 -70 6 -32 9 -61 16 -64 16 -4 0 2 -29 12 -64 10 -37
14 -69 9 -77 -11 -19 -14 -13 -34 68 -9 40 -22 76 -28 81 -14 10 -257 75 -263
70 -6 -7 67 -262 77 -268 5 -4 40 -14 79 -24 38 -10 70 -22 70 -27 0 -13 -39
-11 -94 6 -27 8 -50 14 -52 13 -1 -2 5 -31 14 -65 9 -34 13 -65 9 -70 -12 -11
-23 11 -37 74 l-12 55 -57 -56 c-31 -31 -60 -56 -64 -56 -20 0 -1 30 52 85
l59 60 -36 130 c-19 72 -37 132 -39 134 -2 3 -48 -39 -102 -93 l-99 -99 19
-71 c11 -39 22 -79 25 -88 3 -12 0 -18 -9 -18 -10 0 -19 19 -27 53 -7 28 -15
55 -17 60 -7 13 -101 -45 -145 -90 l-41 -41 57 -32 c52 -30 71 -50 45 -50 -6
0 -42 19 -82 42 l-71 41 -40 -22 c-23 -12 -79 -43 -125 -70 l-84 -49 74 -43
c41 -23 96 -55 122 -71 l49 -29 71 41 c79 46 88 49 93 35 2 -5 -28 -28 -66
-49 l-70 -40 52 -33 c29 -18 56 -33 61 -33 4 0 7 -4 7 -10 0 -18 -29 -11 -78
20 l-47 29 -3 -64 c-2 -40 -8 -68 -17 -75 -13 -11 -15 -1 -15 73 l0 84 -122
71 -123 71 -3 -132 c-1 -72 -1 -136 2 -143 3 -7 34 -29 70 -49 62 -34 82 -55
54 -55 -7 0 -35 14 -63 30 -27 16 -53 30 -57 30 -5 0 -8 -29 -8 -64 0 -36 -4
-68 -10 -71 -6 -4 -10 20 -10 64 0 39 -3 71 -6 71 -4 0 -32 -16 -64 -35 -59
-36 -80 -42 -80 -25 0 5 34 29 75 52 l75 43 0 143 0 142 -52 -30 c-29 -17 -86
-49 -125 -72 l-73 -42 0 -88 c0 -52 -4 -88 -10 -88 -6 0 -10 28 -10 64 l0 64
-57 -15 c-46 -12 -124 -48 -152 -70 -3 -2 15 -23 38 -47 26 -27 40 -49 36 -56
-5 -8 -29 9 -71 51 l-64 64 -128 -34 c-70 -18 -130 -36 -134 -40 -4 -4 36 -50
90 -104 l97 -97 87 25 c50 13 90 20 93 14 7 -11 -18 -22 -99 -44 l-59 -16 48
-49 c27 -27 46 -53 42 -57 -4 -4 -29 15 -56 41 l-49 48 -16 -55 c-9 -30 -16
-60 -16 -65 0 -5 -7 -12 -15 -16 -19 -7 -19 0 5 86 l20 73 -97 97 c-54 54
-100 94 -103 90 -8 -8 -70 -237 -70 -254 0 -7 26 -38 57 -70 45 -46 53 -58 37
-58 -11 0 -38 18 -59 40 -21 22 -42 40 -45 40 -4 0 -13 -25 -20 -55 -13 -54
-25 -73 -37 -61 -3 3 2 32 11 64 9 32 16 61 16 64 0 2 -34 -4 -75 -15 -70 -19
-101 -18 -79 2 5 5 42 16 82 26 43 10 76 24 81 34 12 22 73 252 69 257 -7 6
-263 -68 -269 -78 -3 -5 -14 -43 -24 -84 -12 -44 -24 -74 -32 -74 -16 0 -16 4
2 64 8 27 15 53 15 58 0 20 -194 -4 -219 -28 -2 -2 8 -23 23 -48 14 -24 26
-49 26 -55 0 -28 -22 -5 -62 64 l-43 75 -137 0 c-76 0 -138 -3 -138 -7 0 -4
30 -60 67 -125 l68 -117 90 -3 c110 -4 117 -22 10 -26 -41 -2 -75 -5 -75 -9 0
-3 14 -30 31 -59 23 -41 27 -54 15 -54 -8 0 -29 25 -47 56 l-32 56 -34 -61
c-19 -34 -41 -61 -49 -61 -14 0 2 35 59 131 7 11 -9 47 -61 138 -69 120 -70
123 -85 100 -8 -13 -40 -68 -71 -122 l-57 -98 38 -67 c49 -86 47 -82 30 -82
-8 0 -31 28 -50 61 l-34 61 -32 -56 c-17 -31 -38 -56 -47 -56 -12 0 -9 10 12
48 15 26 32 53 37 60 7 9 -8 12 -72 12 -65 0 -81 3 -81 15 0 12 16 15 88 15
l88 0 59 102 c32 57 65 113 73 125 l14 23 -143 0 -144 0 -43 -75 c-23 -41 -47
-75 -52 -75 -16 0 -12 16 19 68 l28 49 -62 16 c-35 9 -86 17 -115 17 -44 0
-51 -2 -46 -17 18 -62 27 -106 22 -110 -12 -12 -25 12 -40 75 -10 37 -20 73
-24 79 -7 11 -262 86 -269 79 -5 -4 65 -257 72 -265 4 -3 41 -15 83 -27 42
-11 78 -26 80 -32 5 -17 -12 -15 -91 7 -62 18 -68 19 -63 3 17 -56 28 -114 23
-118 -13 -13 -25 9 -37 66 l-13 61 -46 -45 c-26 -25 -55 -46 -66 -46 -15 0 -5
15 40 60 l60 61 -33 127 c-18 70 -37 130 -41 134 -3 4 -50 -36 -103 -90 l-97
-97 19 -70 c24 -82 25 -96 6 -89 -7 3 -19 31 -26 62 -7 31 -15 61 -17 65 -3 5
-27 -13 -54 -39 -27 -26 -52 -45 -56 -41 -4 4 15 29 41 56 50 51 50 54 1 65
-82 19 -105 28 -105 41 0 11 18 9 88 -10 l87 -24 97 97 c54 53 94 100 90 103
-4 4 -64 23 -134 41 l-127 33 -65 -64 c-42 -42 -66 -59 -71 -51 -4 7 9 28 34
54 22 23 41 44 41 47 0 11 -125 68 -162 75 l-37 6 -3 -58 c-2 -35 -8 -59 -15
-62 -10 -3 -13 19 -13 85 l0 89 -102 59 c-57 32 -113 65 -125 73 l-23 14 0
-143 1 -144 74 -43 c41 -23 75 -47 75 -52 0 -17 -17 -11 -77 25 -32 19 -61 35
-65 35 -5 0 -8 -32 -8 -71 0 -44 -4 -68 -10 -64 -5 3 -10 35 -10 71 0 35 -2
64 -5 64 -3 0 -29 -14 -58 -30 -30 -17 -59 -30 -65 -30 -27 0 -8 19 58 56 l70
39 0 144 0 143 -23 -14 c-12 -8 -68 -41 -124 -73 l-103 -59 0 -84 c0 -53 -4
-81 -10 -77 -5 3 -10 37 -10 76 0 38 -2 69 -5 69 -2 0 -27 -14 -55 -30 -50
-29 -80 -38 -80 -22 0 4 27 23 61 41 l61 34 -28 17 c-108 66 -118 74 -102 78
10 2 48 -15 86 -38 l69 -41 99 57 c167 95 161 78 53 141 -161 94 -143 91 -227
43 -44 -26 -77 -39 -83 -33 -5 5 14 22 47 42 l56 33 -41 42 c-22 22 -63 53
-90 69 l-50 27 -17 -60 c-9 -33 -21 -60 -25 -60 -14 0 -11 29 11 105 l19 70
-97 98 c-53 53 -99 97 -102 97 -3 0 -21 -61 -40 -135 l-35 -135 64 -64 c43
-43 59 -66 51 -71 -8 -5 -32 14 -66 50 -30 32 -56 56 -58 54 -1 -2 -11 -35
-21 -72 -12 -46 -21 -65 -28 -58 -6 6 -5 30 6 73 9 34 15 64 13 65 -1 1 -24
-4 -51 -12 -55 -17 -95 -19 -95 -6 0 5 30 16 68 25 37 10 73 21 80 25 12 7 86
261 78 268 -4 4 -221 -53 -251 -66 -16 -6 -25 -28 -39 -85 -10 -42 -22 -76
-27 -76 -13 0 -11 37 5 98 8 28 12 52 9 52 -3 0 -29 -7 -59 -16 -55 -16 -106
-12 -74 5 8 5 39 14 68 21 28 6 54 15 57 19 2 4 -20 32 -50 61 -30 29 -51 58
-48 63 3 5 34 -19 69 -54 l64 -64 128 34 c70 18 130 36 134 40 4 4 -36 50 -90
104 l-97 97 -70 -20 c-77 -22 -105 -25 -105 -11 0 10 6 12 78 31 l43 11 -28
50 c-15 27 -47 68 -70 91 l-42 41 -18 -32 c-27 -49 -50 -77 -58 -69 -4 4 10
38 31 75 22 37 41 72 43 76 3 9 -131 247 -139 247 -3 0 -36 -55 -73 -121 l-68
-121 40 -68 c23 -38 41 -73 41 -79 0 -27 -22 -6 -55 54 -20 36 -38 65 -40 65
-3 0 -19 -27 -37 -60 -18 -33 -36 -60 -40 -60 -16 0 -7 31 22 80 17 28 30 53
30 55 0 3 -34 5 -75 5 -43 0 -75 4 -75 10 0 6 34 10 83 10 l83 0 59 102 c32
57 65 113 73 126 l14 22 -143 0 -144 0 -45 -78 c-29 -51 -45 -71 -48 -59 -2
10 10 42 27 72 17 30 31 57 31 60 0 3 -31 5 -70 5 -40 0 -70 4 -70 10 0 6 30
10 70 10 39 0 70 3 70 6 0 3 -16 34 -35 68 -37 67 -40 76 -25 76 5 0 28 -32
51 -71 23 -39 48 -73 54 -75 6 -3 70 -3 142 -2 l131 3 -70 123 -71 122 -89 0
c-67 0 -89 3 -86 13 3 7 27 13 62 15 l58 3 -6 37 c-7 37 -64 162 -75 162 -3 0
-25 -19 -48 -42 -28 -28 -46 -39 -53 -32 -6 6 11 31 53 72 l63 63 -35 134
c-20 74 -38 135 -41 135 -3 0 -49 -44 -103 -98 l-97 -97 20 -70 c22 -76 25
-105 11 -105 -4 0 -16 28 -25 63 -10 34 -19 68 -22 76 -3 10 -21 -2 -59 -39
-32 -31 -55 -48 -55 -39 0 8 20 35 45 59 24 24 42 47 40 51 -3 4 -17 10 -32
13 -84 21 -103 28 -103 40 0 10 20 8 84 -9 l84 -23 98 99 c54 54 96 100 93
102 -2 2 -62 20 -134 39 l-130 35 -60 -58 c-33 -33 -64 -59 -68 -59 -19 0 -2
29 44 76 l51 52 -56 13 c-56 12 -96 32 -86 43 3 3 26 -1 50 -8 25 -7 57 -16
72 -20 l26 -6 -20 75 c-19 71 -19 101 1 79 5 -5 16 -42 26 -82 9 -40 22 -75
27 -78 13 -8 261 -74 265 -71 4 5 -66 260 -74 267 -4 4 -39 15 -78 25 -70 18
-94 30 -83 40 5 6 46 -3 111 -21 15 -5 17 2 17 46 0 28 -7 80 -16 115 l-16 65
-53 -30 c-57 -33 -65 -35 -65 -20 0 5 34 29 75 52 l74 43 1 143 c0 79 -3 141
-7 139 -5 -2 -61 -34 -126 -71 l-117 -68 0 -89 c0 -95 -19 -128 -21 -36 -1 28
-4 64 -8 80 l-6 27 -58 -35 c-65 -39 -67 -40 -67 -22 0 7 27 27 60 45 33 19
60 35 60 37 0 2 -29 20 -65 40 -36 20 -65 40 -65 45 0 17 15 11 87 -30 l70
-41 99 57 c167 95 161 78 53 141 -162 95 -145 92 -228 43 -68 -39 -92 -46 -77
-21 4 6 34 25 67 44 66 37 66 35 -14 81 -26 15 -47 31 -47 36 0 15 11 12 65
-20 28 -16 53 -30 57 -30 4 0 8 35 10 78 4 107 22 98 26 -14 l3 -90 112 -65
c62 -35 118 -65 125 -67 9 -3 12 29 12 137 l0 140 -75 41 c-41 23 -75 46 -75
51 0 15 14 11 64 -17 26 -15 49 -25 50 -23 12 14 36 126 36 168 0 54 -6 59
-52 42 -52 -19 -78 -22 -78 -8 0 9 28 21 75 32 42 11 79 22 84 25 14 8 81 270
69 270 -11 0 -179 -44 -235 -61 -29 -9 -33 -16 -49 -84 -19 -81 -29 -103 -40
-92 -4 4 2 41 13 82 22 84 23 83 -53 60 -57 -17 -74 -19 -74 -6 0 5 26 17 57
26 32 9 64 18 72 21 10 3 -1 20 -37 57 -29 29 -52 59 -52 67 0 8 29 -14 64
-49 l65 -64 128 33 c70 18 131 36 135 39 4 4 -37 51 -91 105 l-98 98 -77 -21
c-86 -24 -96 -25 -96 -12 0 5 26 17 58 26 31 9 65 19 76 22 15 4 10 13 -35 59
-29 29 -50 57 -46 61 4 4 32 -17 61 -46 46 -45 55 -50 59 -35 3 11 13 45 22
77 9 31 21 57 26 57 13 0 12 -10 -12 -96 l-21 -77 98 -98 c54 -54 101 -95 105
-91 3 4 21 65 39 135 l33 128 -62 63 c-42 43 -59 66 -51 71 7 4 29 -9 54 -34
33 -33 45 -39 53 -29 22 28 52 96 66 146 l15 52 -64 0 c-36 0 -64 4 -64 10 0
6 36 10 88 10 l87 0 68 119 c37 65 67 121 67 125 0 3 -63 6 -139 6 l-140 0
-42 -75 c-40 -70 -59 -90 -59 -64 0 6 16 38 35 70 19 33 35 62 35 65 0 2 -34
4 -75 4 -43 0 -75 4 -75 10 0 6 32 10 75 10 41 0 75 3 75 6 0 3 -16 33 -35 65
-36 62 -42 79 -26 79 5 0 28 -34 51 -75 l41 -75 145 0 145 0 -26 43 c-14 23
-46 79 -72 125 l-47 82 -89 0 c-66 0 -88 3 -85 13 3 8 31 13 81 15 l76 3 -35
60 c-19 32 -32 64 -28 70 3 6 17 -8 31 -33 59 -101 50 -99 96 -19 22 39 45 67
49 63 5 -5 -9 -40 -32 -79 -22 -38 -40 -74 -40 -78 0 -5 30 -62 67 -127 52
-92 70 -116 78 -106 7 7 40 62 74 122 l61 108 -40 73 c-39 71 -50 102 -30 90
5 -3 21 -28 36 -56 l28 -50 39 38 c42 40 97 119 97 139 0 6 -16 15 -36 19 -53
10 -86 24 -80 34 4 5 43 -1 90 -14 l83 -23 102 102 101 102 -137 37 -138 37
-62 -62 c-34 -34 -66 -59 -70 -55 -4 4 19 34 51 66 l58 58 -71 18 c-39 9 -71
21 -71 26 0 13 28 11 84 -6 27 -8 52 -15 56 -15 4 0 -2 32 -12 71 -12 44 -16
75 -10 81 5 5 18 -23 32 -77 13 -47 24 -85 26 -85 2 0 63 -16 135 -36 72 -19
132 -34 134 -32 1 2 -14 63 -34 137 l-36 134 -70 19 c-99 27 -100 27 -89 38 6
6 35 3 79 -10 39 -11 71 -20 72 -20 1 0 -7 32 -18 72 -13 46 -17 74 -10 81 6
6 14 -6 21 -34 6 -24 16 -59 22 -78 l10 -33 57 56 c32 31 60 53 64 49 4 -4
-20 -35 -54 -69 l-62 -63 33 -123 c18 -68 36 -129 39 -135 4 -8 42 23 106 87
l98 99 -22 81 c-12 45 -20 84 -17 87 11 12 23 -10 35 -62 7 -30 14 -55 17 -55
23 0 174 122 174 140 0 4 -23 19 -50 34 -28 15 -50 31 -50 37 0 16 16 10 86
-31 38 -22 72 -40 76 -40 11 0 238 133 238 140 0 5 -206 128 -232 138 -4 2
-40 -15 -79 -37 -39 -23 -75 -41 -80 -41 -24 0 -3 20 61 56 l69 41 -70 40
c-39 23 -66 44 -60 47 6 4 40 -9 76 -29 l65 -37 0 76 c0 41 5 78 10 81 6 4 10
-26 10 -83 l0 -88 83 -47 c45 -26 101 -58 125 -72 l42 -26 0 145 0 145 -75 42
c-42 24 -71 47 -66 52 4 4 35 -8 69 -27 33 -20 63 -36 66 -36 3 0 6 31 6 69 0
39 5 73 10 76 6 4 10 -22 10 -69 0 -42 4 -76 9 -76 6 0 36 16 68 35 61 37 73
41 73 25 0 -5 -32 -28 -71 -50 -38 -23 -72 -47 -75 -54 -3 -7 -3 -71 -2 -144
l3 -132 123 71 122 70 0 90 c0 68 3 90 13 87 7 -3 14 -29 17 -65 l5 -61 57 18
c31 10 78 30 104 45 l46 27 -48 49 c-69 70 -32 61 41 -10 l60 -58 133 36 c72
19 132 38 132 41 0 3 -44 49 -98 103 l-97 97 -73 -20 c-79 -22 -102 -25 -102
-11 0 5 24 15 53 21 110 26 108 23 47 85 -30 30 -51 58 -47 62 4 4 32 -17 62
-47 30 -30 56 -52 58 -49 2 2 12 37 22 77 9 39 21 72 26 72 14 0 11 -29 -11
-105 l-20 -70 97 -97 c54 -54 100 -98 104 -98 3 0 22 60 41 133 l35 132 -59
61 c-80 82 -72 108 9 31 l61 -58 17 71 c16 63 29 89 40 78 3 -2 -5 -37 -16
-77 -11 -40 -19 -74 -17 -76 2 -2 36 6 76 17 41 11 77 17 80 13 10 -10 -12
-20 -90 -40 -40 -10 -74 -19 -75 -19 -5 -4 -74 -269 -70 -272 6 -6 259 64 268
73 3 5 14 40 24 78 10 39 22 74 26 79 18 20 20 -4 5 -53 l-15 -51 115 0 c62 0
114 2 114 5 0 3 -13 29 -30 58 -29 52 -38 87 -22 87 4 0 27 -34 51 -75 l42
-75 139 0 139 0 -66 115 -65 115 -89 0 c-82 0 -89 2 -89 20 0 18 7 20 76 20
l76 0 -37 65 c-32 58 -34 65 -17 65 12 0 28 -17 46 -50 15 -27 30 -51 34 -54
4 -2 21 19 37 47 31 57 45 71 58 58 5 -5 -9 -40 -32 -79z m147 7 l43 -80 -43
-74 c-24 -41 -47 -74 -52 -72 -4 1 -26 36 -49 77 l-40 75 44 77 c24 43 46 77
49 78 3 0 24 -36 48 -81z m-194 56 c-4 -8 -10 -15 -14 -15 -4 0 -10 7 -14 15
-4 10 1 15 14 15 13 0 18 -5 14 -15z m314 4 c-2 -6 -8 -10 -13 -10 -5 0 -11 4
-13 10 -2 6 4 11 13 11 9 0 15 -5 13 -11z m417 -24 c61 -9 117 -18 125 -20 14
-4 44 -84 35 -93 -1 -2 -24 2 -49 9 -41 10 -49 9 -66 -6 -23 -20 -27 -79 -8
-92 7 -4 47 -17 88 -29 l75 -21 22 -74 c12 -41 22 -79 22 -86 1 -13 -169 31
-179 47 -3 5 -14 43 -25 82 -19 77 -27 88 -61 88 -38 0 -57 -33 -49 -86 l7
-47 -47 5 c-25 3 -48 8 -50 10 -3 2 5 23 16 45 19 39 20 43 4 67 -12 18 -26
26 -45 26 -25 0 -34 -10 -72 -75 l-43 -75 -93 0 -94 0 41 73 40 72 93 5 93 5
12 35 c17 53 -1 74 -66 78 -28 2 -51 5 -51 8 0 9 22 48 36 65 15 17 82 13 289
-16z m-866 -9 c12 -18 21 -36 21 -40 0 -3 -24 -6 -54 -6 -50 0 -54 -2 -66 -29
-9 -24 -9 -34 4 -60 l17 -31 87 0 c72 0 89 -3 98 -17 6 -10 25 -44 43 -75 l32
-58 -95 0 -95 0 -41 75 c-39 70 -44 75 -74 75 -28 0 -36 -5 -46 -29 -10 -25
-8 -35 9 -70 12 -22 21 -43 21 -46 0 -3 -24 -5 -54 -5 l-54 0 10 36 c8 29 6
39 -8 55 -20 22 -57 25 -72 6 -6 -7 -18 -44 -28 -82 -9 -39 -20 -73 -23 -77
-3 -4 -48 -18 -99 -32 -83 -22 -92 -23 -88 -8 3 9 14 50 25 91 11 41 23 77 26
80 4 3 41 15 83 27 66 18 78 25 87 48 7 21 5 30 -12 47 -20 20 -25 21 -73 9
-28 -7 -52 -11 -54 -9 -2 2 3 27 11 56 l15 52 72 12 c124 21 249 37 303 38 48
1 53 -1 72 -33z m1160 -62 c-16 -20 -29 -17 -29 5 0 14 5 18 20 14 16 -4 18
-8 9 -19z m-1725 -6 c-9 -33 -12 -33 -34 -13 -22 20 -12 35 23 35 14 0 17 -5
11 -22z m1880 -29 c-3 -5 5 -43 16 -85 l22 -77 -63 -63 c-35 -35 -66 -60 -70
-56 -3 4 -16 43 -27 86 l-21 79 62 67 c34 37 68 65 74 62 7 -2 10 -8 7 -13z
m-1984 -54 l64 -65 -24 -96 -24 -95 -70 70 -70 70 19 78 c11 43 19 84 19 91
-3 26 24 9 86 -53z m2129 26 c12 -8 13 -12 1 -26 -10 -13 -15 -13 -21 -3 -20
30 -8 46 20 29z m-2325 -23 c-9 -33 -12 -33 -34 -13 -22 20 -12 35 23 35 14 0
17 -5 11 -22z m-119 -68 c27 -28 34 -41 24 -44 -8 -2 -32 -10 -54 -17 -22 -6
-43 -17 -47 -23 -13 -19 -9 -52 10 -69 16 -14 23 -14 87 4 38 10 79 19 90 19
19 0 154 -125 144 -133 -2 -2 -46 -15 -96 -28 l-93 -24 -62 61 c-52 51 -67 60
-87 55 -15 -4 -28 -18 -34 -35 -8 -24 -5 -32 24 -62 32 -33 32 -34 13 -49 -22
-17 -75 -34 -86 -28 -5 2 -8 24 -8 48 0 34 -5 47 -21 59 -19 13 -25 13 -50 0
-29 -14 -29 -16 -29 -103 l0 -89 -80 -46 c-43 -25 -82 -46 -85 -46 -3 0 -4 44
-3 97 l3 97 70 41 c60 36 70 46 73 72 2 23 -3 35 -19 47 -21 14 -26 13 -76
-15 l-54 -31 3 58 3 59 50 24 c66 32 327 140 340 140 6 1 28 -17 50 -39z
m2737 -14 c73 -30 157 -65 185 -77 l53 -24 0 -52 0 -53 -49 27 c-44 25 -51 26
-75 14 -19 -10 -26 -22 -26 -43 0 -24 10 -33 75 -70 l75 -43 0 -98 c0 -54 -3
-97 -8 -95 -4 2 -42 22 -85 46 l-77 43 0 90 c0 86 -1 90 -25 101 -20 9 -31 8
-50 -2 -21 -11 -25 -20 -25 -62 0 -48 0 -48 -27 -42 -16 4 -39 13 -52 21 l-23
15 26 27 c28 29 35 81 14 99 -33 26 -57 17 -120 -44 l-63 -61 -88 25 -89 25
62 62 62 63 86 -24 c92 -25 105 -23 123 23 15 41 -5 71 -56 84 -25 6 -45 14
-45 17 0 14 55 62 71 62 10 0 77 -24 151 -54z m370 -169 c15 -12 15 -14 -3
-25 -26 -17 -29 -15 -29 13 0 28 7 30 32 12z m-3652 -27 c0 -30 0 -30 -26 -14
l-26 17 24 13 c12 7 24 13 26 14 1 0 2 -14 2 -30z m3800 -144 l0 -81 -81 -48
c-45 -26 -85 -47 -90 -47 -5 0 -9 43 -9 95 l0 94 77 45 c97 56 103 53 103 -58z
m-3800 -99 l0 -98 -57 32 c-32 18 -70 40 -85 49 -27 15 -28 17 -28 106 0 50 3
93 6 97 3 3 41 -15 85 -41 l79 -46 0 -99z m-273 66 c-3 -2 -15 1 -28 7 l-22
12 24 19 c24 18 24 18 27 -7 2 -14 1 -28 -1 -31z m4202 43 c9 -11 8 -15 -5
-20 -23 -9 -24 -8 -24 14 0 23 13 26 29 6z m203 -137 c45 -34 122 -93 169
-131 l87 -70 -10 -36 c-17 -69 -16 -68 -61 -25 -34 32 -47 39 -67 34 -15 -4
-29 -18 -34 -34 -9 -25 -5 -32 53 -91 l63 -63 -23 -84 c-12 -46 -25 -87 -29
-91 -3 -4 -36 23 -73 60 l-68 68 22 83 22 82 -20 21 c-17 17 -26 19 -49 11
-23 -8 -31 -18 -38 -51 -11 -51 -25 -53 -73 -8 l-37 33 42 27 c33 21 42 32 42
55 0 22 -7 31 -28 40 -26 11 -35 8 -99 -29 -38 -22 -73 -40 -77 -40 -3 0 -43
21 -87 47 -93 54 -94 49 24 112 l64 34 77 -42 c74 -41 78 -42 101 -27 17 11
25 26 25 44 0 22 -9 32 -51 56 l-52 29 39 23 c21 13 44 24 51 24 6 0 49 -28
95 -61z m-4495 25 c48 -29 48 -29 -19 -65 -31 -16 -38 -25 -38 -49 0 -22 7
-33 26 -43 25 -13 32 -11 102 29 l75 43 46 -27 c25 -14 63 -37 85 -50 l38 -24
-86 -49 -85 -49 -74 44 c-69 40 -76 42 -100 29 -20 -10 -27 -21 -27 -43 0 -23
8 -33 40 -51 22 -13 40 -26 40 -29 0 -9 -41 -46 -68 -59 -20 -11 -23 -9 -32
14 -6 15 -10 32 -10 39 0 37 -56 48 -85 16 -17 -18 -17 -23 5 -101 l22 -82
-68 -68 c-37 -38 -69 -67 -71 -65 -2 2 -15 43 -28 92 l-24 89 60 61 c55 56 60
65 54 92 -4 21 -14 32 -32 37 -21 5 -33 -1 -64 -31 -21 -21 -42 -34 -46 -30
-4 4 -13 26 -20 49 l-13 42 46 40 c68 58 288 225 297 225 5 0 29 -12 54 -26z
m4852 -346 c-27 -10 -33 -5 -24 22 7 21 8 21 26 4 20 -18 20 -18 -2 -26z
m-5319 -5 c0 -14 -32 -18 -43 -6 -4 3 1 15 10 25 13 14 18 16 25 6 4 -7 8 -19
8 -25z m5440 -88 c0 -23 -39 -158 -47 -166 -10 -10 -174 -51 -180 -46 -5 6 37
169 47 180 8 9 133 45 163 46 9 1 17 -6 17 -14z m-5490 -19 l84 -23 23 -84
c13 -46 22 -89 21 -95 -2 -6 -36 -2 -94 14 l-91 24 -21 83 c-24 90 -26 105
-14 105 4 -1 45 -11 92 -24z m5591 -110 c-26 -11 -32 -6 -24 22 5 22 6 22 25
5 19 -17 19 -18 -1 -27z m-5762 -12 c1 -7 -9 -9 -24 -6 -30 5 -31 9 -8 34 17
19 18 19 24 1 4 -10 8 -23 8 -29z m6021 -270 c55 -71 100 -137 100 -145 0 -8
-11 -32 -24 -53 l-24 -40 -28 52 c-24 43 -34 52 -56 52 -18 0 -33 -8 -44 -25
-15 -23 -14 -27 27 -102 l42 -77 -32 -61 c-18 -33 -41 -71 -50 -84 l-18 -23
-46 80 c-26 45 -47 84 -47 87 0 4 18 38 41 77 37 64 40 72 29 99 -10 23 -19
29 -41 29 -27 0 -52 -26 -73 -75 -6 -14 -78 63 -73 78 2 6 21 17 42 23 51 14
68 55 37 86 l-20 21 -82 -23 -83 -22 -68 68 c-38 38 -65 71 -61 74 4 4 45 17
91 29 l85 22 63 -63 c58 -57 65 -61 90 -52 16 5 30 19 34 34 5 20 -2 33 -34
67 -43 45 -44 44 23 61 33 9 37 7 68 -27 18 -20 78 -95 132 -167z m-6089 175
c19 -7 36 -14 38 -16 3 -2 -13 -21 -34 -43 -34 -35 -38 -43 -29 -67 5 -16 19
-30 34 -34 21 -5 35 4 88 55 l62 61 87 -23 c47 -12 89 -24 92 -27 3 -3 -25
-36 -62 -73 l-67 -67 -82 22 c-83 21 -83 21 -104 1 -35 -32 -19 -68 39 -87
l47 -16 -19 -30 c-10 -16 -27 -38 -38 -47 -19 -17 -20 -17 -42 22 -19 34 -27
40 -55 40 -25 0 -35 -6 -44 -24 -9 -20 -4 -34 32 -98 l43 -74 -46 -82 c-25
-45 -49 -82 -52 -82 -4 0 -27 36 -53 81 l-47 80 42 75 c36 65 40 79 30 100 -8
18 -18 24 -43 24 -29 0 -36 -6 -57 -45 -13 -25 -27 -45 -30 -45 -3 0 -17 20
-29 44 -28 53 -32 44 82 195 159 208 151 202 217 180z m6277 -439 c11 -18 10
-20 -13 -20 -27 0 -28 1 -19 24 8 21 17 20 32 -4z m-6638 -32 c0 -4 -11 -8
-25 -8 -27 0 -33 18 -13 38 10 10 15 9 25 -5 7 -9 13 -20 13 -25z m6715 -98
c4 -6 -13 -45 -37 -88 l-43 -77 -98 -3 c-53 -1 -97 0 -97 4 0 4 21 45 47 91
l47 83 87 0 c50 0 91 -4 94 -10z m-6631 -43 c10 -18 32 -56 48 -84 l30 -53
-99 0 -98 0 -46 78 c-25 43 -44 82 -42 88 2 5 43 8 96 6 92 -3 92 -3 111 -35z
m6716 -113 c0 -8 -10 -14 -25 -14 -28 0 -30 3 -13 30 9 14 16 16 25 8 7 -6 13
-17 13 -24z m-6960 -10 c0 -8 -10 -14 -25 -14 -28 0 -29 3 -14 31 8 16 13 18
25 8 8 -6 14 -18 14 -25z m6838 -179 c37 -65 46 -75 70 -75 21 0 33 7 43 26
12 24 11 31 -14 75 l-27 49 54 0 55 0 26 -57 c40 -86 135 -323 135 -337 0 -13
-67 -82 -74 -75 -2 2 -10 26 -18 53 -11 40 -19 51 -40 57 -20 5 -31 2 -46 -15
-20 -21 -20 -21 1 -104 l22 -82 -71 -71 -71 -70 -24 95 -25 95 62 62 c54 53
61 64 55 88 -5 16 -18 30 -34 35 -24 9 -32 5 -62 -24 -30 -29 -38 -32 -46 -20
-19 29 -26 45 -33 73 -6 27 -6 27 44 27 44 0 52 3 62 25 8 19 8 31 0 50 -11
24 -15 25 -100 25 l-89 0 -47 80 c-25 44 -46 82 -46 85 0 3 44 5 98 5 l97 0
43 -75z m-6838 58 c0 -3 -11 -26 -25 -49 -24 -42 -25 -45 -9 -69 11 -16 26
-25 43 -25 23 0 33 11 70 75 l42 75 100 0 99 0 -30 -52 c-17 -29 -39 -68 -47
-85 l-17 -33 -88 0 c-82 0 -89 -1 -104 -25 -15 -23 -15 -27 0 -50 14 -21 24
-25 62 -25 l47 0 -7 -32 c-3 -18 -13 -43 -22 -56 l-16 -24 -33 32 c-27 27 -38
31 -63 25 -22 -4 -31 -13 -35 -33 -5 -23 4 -37 55 -89 l61 -61 -24 -91 c-13
-50 -26 -91 -29 -91 -3 0 -35 30 -72 68 l-66 67 21 82 22 83 -21 20 c-32 32
-69 13 -85 -42 -7 -24 -15 -46 -19 -50 -3 -5 -22 9 -43 30 l-36 37 63 155
c107 263 93 240 154 240 28 0 52 -3 52 -7z m7233 -523 c4 -16 0 -20 -17 -20
-32 0 -39 11 -20 31 19 21 29 18 37 -11z m-7513 5 c15 -18 5 -35 -22 -35 -14
0 -18 5 -14 16 3 9 6 20 6 25 0 14 16 11 30 -6z m7465 -120 c105 -27 106 -30
30 -105 l-65 -65 -93 24 c-50 13 -94 26 -96 28 -8 6 133 143 144 140 5 -2 42
-12 80 -22z m-7291 -54 c37 -38 64 -71 60 -73 -5 -3 -49 -15 -97 -28 l-88 -23
-65 64 c-35 35 -63 68 -61 73 3 8 136 50 172 55 6 0 41 -30 79 -68z m-244
-151 c0 -4 -12 -10 -26 -13 -19 -3 -24 -1 -20 10 3 8 6 22 6 30 0 14 3 14 20
-2 11 -10 20 -21 20 -25z m7662 15 c5 -22 3 -25 -16 -19 -29 9 -31 11 -16 29
18 21 27 19 32 -10z m-282 -50 c36 -9 72 -21 80 -25 8 -5 24 -44 36 -87 18
-67 25 -79 48 -88 22 -7 30 -5 48 12 19 19 20 25 9 67 -6 24 -11 49 -11 54 0
10 79 -5 93 -18 10 -9 43 -207 52 -315 4 -44 9 -88 11 -97 4 -12 -7 -25 -35
-43 -22 -14 -45 -25 -51 -25 -6 0 -10 24 -10 55 0 49 -3 57 -25 67 -19 8 -31
8 -50 0 -24 -11 -25 -15 -25 -101 l0 -89 -80 -46 c-43 -25 -82 -46 -85 -46 -3
0 -5 44 -5 98 l0 97 75 43 c67 38 75 45 75 72 0 23 -6 33 -26 42 -22 10 -32 9
-66 -11 -22 -12 -42 -20 -44 -18 -3 3 -8 31 -11 62 -7 65 -15 60 67 40 37 -9
67 26 54 62 -8 23 -20 30 -86 47 -42 12 -79 24 -82 27 -4 3 -16 39 -27 80 -11
41 -22 82 -25 92 -5 15 -2 18 13 14 10 -3 47 -13 83 -22z m-7068 -77 c-13 -51
-25 -94 -27 -96 -1 -2 -38 -12 -81 -24 -83 -22 -94 -30 -94 -64 0 -36 31 -55
71 -44 60 17 62 15 56 -40 -3 -28 -9 -55 -12 -60 -3 -5 -23 1 -45 15 -34 21
-43 23 -65 13 -19 -9 -25 -19 -25 -43 0 -30 6 -36 75 -76 l75 -43 0 -99 0 -99
-67 38 c-38 20 -76 42 -85 48 -15 9 -18 26 -18 97 0 81 -2 88 -25 103 -20 13
-29 14 -50 4 -23 -10 -25 -17 -25 -70 0 -32 -3 -58 -7 -58 -3 0 -26 11 -50 25
-34 21 -42 30 -39 48 3 12 8 56 11 97 8 100 34 270 45 296 5 14 24 25 51 32
24 6 45 9 47 7 2 -2 -2 -27 -9 -55 -12 -47 -12 -52 7 -71 33 -33 71 -17 85 35
17 66 32 121 35 124 3 4 165 50 180 51 7 1 2 -34 -14 -91z m7438 -583 c0 -23
-2 -25 -22 -14 -21 11 -21 12 -3 25 25 18 25 18 25 -11z m-7850 5 c13 -8 12
-11 -5 -24 -28 -21 -33 -20 -27 9 5 27 9 29 32 15z m7860 -161 c0 -9 -42 -37
-117 -79 l-41 -23 -81 48 c-45 26 -81 50 -81 53 0 4 37 28 81 53 l81 46 79
-44 c44 -25 79 -49 79 -54z m-7660 45 c44 -25 80 -49 80 -52 0 -4 -12 -14 -28
-22 -15 -9 -52 -30 -82 -47 l-55 -31 -75 44 c-41 24 -75 50 -75 56 0 9 138 97
153 98 2 0 39 -21 82 -46z m7422 -214 c27 -15 28 -18 28 -102 0 -81 2 -89 24
-103 19 -13 28 -14 50 -4 24 11 26 17 26 71 0 32 3 58 6 58 3 0 25 -12 50 -26
35 -20 43 -30 39 -47 -2 -12 -7 -53 -10 -92 -7 -72 -31 -249 -41 -296 -4 -22
-14 -29 -51 -38 -25 -7 -48 -10 -50 -7 -3 3 1 27 8 55 11 46 11 52 -6 71 -13
14 -25 18 -44 13 -14 -3 -27 -7 -29 -8 -2 -2 -13 -40 -25 -86 l-22 -84 -85
-23 c-47 -12 -90 -21 -96 -20 -7 2 -3 34 14 94 l24 91 82 23 c44 12 84 27 88
34 13 20 9 52 -10 69 -16 15 -23 15 -66 2 l-48 -15 4 55 c3 30 8 58 12 62 4 4
25 -2 46 -15 33 -19 43 -20 65 -10 19 8 25 19 25 43 0 28 -7 35 -75 74 l-75
42 0 100 0 100 58 -32 c31 -18 69 -40 84 -49z m-7282 -27 l0 -98 -75 -43 c-67
-38 -75 -45 -75 -72 0 -23 6 -33 25 -42 21 -10 32 -8 66 11 22 13 43 21 45 18
3 -3 8 -31 11 -63 6 -57 6 -57 -18 -50 -64 18 -74 18 -94 -4 -15 -16 -17 -26
-9 -47 8 -23 20 -29 84 -46 41 -10 79 -22 83 -26 7 -7 57 -184 53 -188 -3 -3
-174 44 -185 51 -5 3 -17 38 -26 76 -24 99 -58 126 -100 80 -16 -17 -17 -25
-7 -59 21 -68 19 -72 -34 -56 -25 7 -48 16 -51 18 -7 7 -32 171 -46 307 l-14
123 46 29 46 29 3 -61 c3 -54 6 -62 28 -72 18 -9 30 -8 49 2 24 13 25 18 25
101 l0 87 78 46 c42 25 80 46 85 46 4 0 7 -44 7 -97z m7508 23 c-3 -13 -6 -13
-22 0 -20 14 -20 14 0 28 16 13 19 13 22 0 2 -8 2 -20 0 -28z m-7838 9 c0 -2
-9 -9 -20 -15 -18 -9 -20 -8 -20 15 0 23 2 24 20 15 11 -6 20 -13 20 -15z m92
-695 c6 0 3 -9 -7 -20 -24 -27 -35 -25 -35 6 0 20 4 25 16 20 9 -3 20 -6 26
-6z m7658 -15 c0 -30 -11 -32 -34 -6 -13 15 -14 20 -4 24 27 11 38 6 38 -18z
m-7355 -65 c5 0 -22 -32 -60 -71 -66 -66 -72 -70 -105 -65 -63 10 -140 37
-140 49 0 6 27 39 61 73 l61 62 86 -24 c48 -13 91 -24 97 -24z m7258 -8 c31
-32 57 -65 57 -74 0 -11 -22 -22 -78 -37 -43 -12 -83 -21 -88 -21 -5 0 -40 31
-78 69 l-68 69 53 15 c100 29 124 35 134 36 6 1 36 -25 68 -57z m-7152 -167
l23 -95 -60 -63 c-51 -51 -60 -66 -55 -86 4 -15 18 -28 35 -34 24 -8 32 -5 60
22 18 17 35 31 39 31 9 0 32 -48 41 -82 6 -28 6 -28 -44 -28 -44 0 -52 -3 -62
-25 -9 -20 -8 -31 2 -50 13 -24 18 -25 101 -25 l87 0 46 -80 c25 -43 46 -82
46 -85 0 -3 -44 -5 -97 -5 l-98 0 -43 75 c-39 66 -47 75 -73 75 -22 0 -32 -7
-41 -25 -9 -21 -7 -33 16 -75 l27 -50 -53 0 -54 0 -41 93 c-56 125 -123 295
-123 310 0 17 66 81 73 70 3 -4 10 -28 17 -53 7 -25 17 -48 24 -52 19 -13 48
-9 67 8 16 15 16 20 -7 102 l-23 87 66 68 c37 37 70 67 74 67 3 0 16 -43 30
-95z m6901 28 l67 -68 -22 -82 -22 -83 21 -20 c30 -31 71 -19 80 23 3 18 11
43 16 56 l9 24 34 -33 c19 -19 35 -40 35 -47 0 -15 -67 -185 -123 -310 l-41
-93 -54 0 -54 0 30 54 c28 49 29 55 16 75 -10 13 -26 21 -44 21 -26 0 -34 -9
-72 -75 l-43 -75 -97 0 c-54 0 -98 3 -98 8 0 4 22 43 48 87 l48 80 88 5 c75 4
91 8 102 25 12 18 11 24 -2 43 -12 17 -25 22 -58 22 -23 0 -45 3 -48 6 -8 8 8
61 28 91 l16 25 36 -34 c43 -41 82 -40 93 2 5 21 -4 35 -54 87 l-61 63 23 95
c13 52 26 95 30 95 3 0 37 -30 73 -67z m-7238 -94 c-19 -21 -34 -16 -34 10 0
14 6 17 25 13 24 -4 25 -5 9 -23z m7513 24 c-2 -5 -7 -16 -11 -27 -6 -18 -7
-18 -27 0 -19 17 -19 19 -2 25 24 10 45 11 40 2z m-7237 -683 c-9 -17 -30 -28
-30 -16 0 2 -3 11 -6 20 -5 12 0 16 20 16 24 0 25 -2 16 -20z m320 15 c0 -3
-21 -41 -46 -85 l-47 -80 -88 0 c-48 0 -91 5 -94 10 -3 6 13 44 36 85 l43 75
98 0 c54 0 98 -2 98 -5z m6520 -67 c22 -39 39 -77 36 -85 -4 -9 -29 -13 -93
-13 -73 0 -90 3 -99 18 -6 9 -28 47 -48 85 l-38 67 100 0 100 0 42 -72z m120
68 c0 -11 -13 -36 -19 -36 -3 0 -12 9 -19 20 -11 18 -10 20 13 20 14 0 25 -2
25 -4z m-6490 -289 c-34 -58 -40 -77 -33 -97 6 -18 17 -26 40 -28 26 -3 34 2
54 35 12 21 24 40 26 42 8 11 73 -70 73 -92 0 -3 -20 -10 -45 -17 -56 -16 -70
-49 -36 -83 l21 -21 82 22 83 21 68 -67 c37 -36 67 -69 67 -73 0 -3 -43 -16
-95 -30 l-95 -23 -63 60 c-51 51 -66 60 -86 55 -15 -4 -28 -18 -34 -35 -8 -25
-5 -32 33 -71 l41 -42 -46 -12 c-25 -6 -50 -9 -55 -6 -13 8 -153 184 -213 268
l-56 77 26 46 c28 50 28 50 64 -18 15 -30 25 -38 48 -38 19 0 34 8 44 24 15
22 14 27 -29 99 l-44 76 36 63 c72 125 59 122 116 24 l50 -86 -42 -73z m6093
157 l47 -85 -41 -71 c-35 -59 -40 -76 -33 -97 7 -19 17 -27 41 -29 28 -3 34 2
60 48 l30 52 26 -44 c19 -32 23 -47 15 -61 -15 -28 -182 -247 -225 -294 l-38
-42 -48 11 -48 12 42 42 c37 38 40 45 32 70 -6 17 -19 31 -34 35 -20 5 -35 -4
-86 -55 l-63 -60 -95 24 c-52 13 -95 27 -95 30 0 3 31 36 68 73 l68 68 81 -22
c105 -28 135 -17 119 46 -5 19 -16 27 -51 36 -25 6 -45 13 -45 16 0 20 56 93
72 93 4 0 17 -18 28 -41 19 -36 24 -40 53 -37 24 2 34 10 41 29 7 21 2 38 -33
98 l-42 71 48 85 c26 46 50 84 53 84 3 0 26 -38 53 -85z m-6403 -154 c-6 -11
-14 -20 -18 -20 -4 0 -13 9 -20 20 -11 18 -10 20 18 20 28 0 30 -2 20 -20z
m6638 0 c-11 -18 -28 -27 -28 -16 0 2 -3 11 -6 20 -5 12 0 16 20 16 24 0 25
-2 14 -20z m-5902 -477 c-3 -10 -12 -47 -21 -83 -9 -36 -20 -71 -25 -79 -8
-15 -117 -50 -157 -51 -17 0 -23 6 -23 22 0 29 31 140 42 153 8 9 145 51 176
54 8 1 11 -6 8 -16z m5228 -7 c48 -14 89 -26 90 -28 9 -12 44 -163 40 -170 -3
-4 -14 -8 -25 -8 -23 0 -141 31 -152 40 -4 3 -16 40 -28 81 -11 41 -22 82 -25
92 -7 22 -6 22 100 -7z m-5052 -73 l67 -68 -22 -82 -22 -83 21 -20 c34 -34 69
-19 83 36 6 24 14 44 17 44 23 0 105 -64 93 -73 -2 -2 -21 -14 -41 -26 -47
-28 -54 -74 -14 -92 21 -10 35 -6 100 31 l76 41 86 -49 86 -50 -87 -51 -86
-51 -76 44 c-72 42 -78 43 -100 29 -15 -10 -23 -25 -23 -43 0 -23 8 -33 42
-52 23 -13 43 -28 45 -34 3 -10 -57 -44 -78 -44 -12 0 -248 175 -312 231 l-39
34 13 48 12 48 41 -40 c33 -32 46 -39 68 -34 18 3 30 14 36 32 9 24 4 32 -53
91 l-62 65 25 93 c14 50 28 92 31 92 4 0 37 -30 73 -67z m4858 63 c0 -3 11
-45 24 -94 l24 -90 -59 -58 c-72 -71 -78 -112 -19 -127 20 -5 33 1 66 34 l41
40 13 -47 14 -48 -40 -34 c-21 -19 -99 -79 -172 -134 -141 -107 -152 -110
-203 -70 l-23 19 47 27 c39 23 47 33 47 56 0 18 -8 35 -22 44 -24 17 -15 20
-143 -55 l-30 -18 -83 46 c-45 26 -82 50 -82 54 0 7 153 99 164 99 2 0 36 -19
76 -41 62 -36 75 -40 96 -30 38 17 33 66 -8 91 -18 11 -37 22 -43 23 -14 5 24
46 59 64 33 17 41 10 52 -44 8 -41 56 -56 84 -27 18 18 18 22 -5 104 l-23 85
66 68 c59 59 82 77 82 63z m-5338 -71 c-4 -25 -5 -25 -23 -9 -15 14 -17 19 -7
26 24 15 35 8 30 -17z m5766 17 c10 -7 8 -12 -7 -26 -18 -16 -19 -16 -23 9 -5
25 6 32 30 17z m-5542 -228 c-3 -9 -6 -20 -6 -26 0 -6 -9 -3 -21 8 -19 17 -19
19 -2 25 29 12 36 10 29 -7z m5317 7 c17 -6 17 -8 -2 -25 -12 -11 -21 -14 -21
-8 0 6 -3 17 -6 26 -7 17 0 19 29 7z m-4483 -369 l0 -98 -75 -43 c-41 -23 -79
-39 -85 -36 -5 3 -10 46 -10 95 l0 88 78 46 c42 25 80 45 85 46 4 0 7 -44 7
-98z m192 52 l78 -46 0 -87 c0 -83 1 -88 25 -101 19 -10 30 -11 50 -2 22 10
25 18 25 62 0 50 0 50 28 44 34 -9 82 -32 82 -41 0 -4 -14 -21 -31 -39 -37
-38 -33 -77 11 -92 25 -9 32 -6 89 52 l62 62 94 -24 c52 -14 95 -28 95 -31 0
-4 -30 -37 -68 -74 l-67 -67 -87 24 c-82 22 -88 23 -102 7 -17 -19 -20 -48 -8
-68 4 -6 29 -17 55 -23 26 -7 49 -16 52 -20 2 -4 -11 -21 -29 -39 l-33 -32
-99 37 c-54 20 -146 58 -204 84 l-105 47 -3 52 -3 53 50 -28 c43 -23 55 -25
76 -16 18 9 25 19 25 41 0 26 -8 34 -75 72 l-75 43 0 98 c0 54 3 98 7 98 3 0
42 -21 85 -46z m3328 -52 l0 -98 -75 -43 c-66 -38 -75 -47 -75 -72 0 -22 7
-32 26 -41 22 -10 32 -8 75 16 l50 28 -3 -53 -3 -53 -130 -56 c-71 -31 -163
-69 -202 -83 l-73 -27 -35 31 c-19 17 -33 35 -30 39 3 4 27 13 54 20 40 9 51
17 59 40 8 22 6 31 -10 48 l-20 20 -86 -24 -87 -24 -67 67 c-38 37 -68 70 -68
74 0 3 43 17 95 31 l94 24 62 -62 c53 -53 65 -61 87 -55 16 4 29 18 35 35 8
24 5 32 -22 60 -17 18 -31 35 -31 39 0 9 48 32 83 41 27 6 27 6 27 -44 0 -44
3 -52 25 -62 19 -8 31 -8 50 0 24 11 25 15 25 101 l0 89 78 46 c42 25 80 45
85 46 4 0 7 -44 7 -98z m195 50 l80 -47 3 -81 c4 -113 -5 -119 -103 -63 l-75
43 0 98 c0 54 3 98 8 98 4 0 43 -21 87 -48z m-3989 -149 c-3 -3 -13 0 -22 8
-14 12 -14 14 3 27 16 11 18 11 21 -8 2 -12 1 -24 -2 -27z m4193 11 c-17 -21
-29 -17 -29 11 0 23 2 24 21 15 16 -9 18 -14 8 -26z m-3919 -149 c0 -23 -2
-25 -22 -14 -21 11 -21 12 -3 25 25 18 25 18 25 -11z m3660 0 c0 -2 -9 -9 -20
-15 -18 -9 -20 -8 -20 15 0 23 2 24 20 15 11 -6 20 -13 20 -15z m-2596 -19
c48 -14 91 -28 94 -31 4 -4 16 -41 28 -83 18 -65 25 -78 47 -86 36 -13 71 17
62 54 -20 82 -25 74 40 67 31 -3 59 -8 62 -11 3 -2 -5 -23 -18 -45 -19 -34
-21 -45 -11 -66 9 -18 19 -25 41 -25 26 0 34 8 72 75 l43 75 98 0 c54 0 98 -2
98 -5 0 -3 -21 -42 -46 -85 l-46 -80 -87 0 c-83 0 -88 -1 -101 -25 -10 -19
-11 -30 -2 -50 11 -23 17 -25 73 -25 l61 0 -23 -37 c-12 -21 -25 -41 -28 -45
-10 -12 -437 41 -446 54 -7 12 -23 83 -19 87 2 3 27 -1 55 -8 47 -12 53 -12
71 6 14 14 17 27 13 46 -6 21 -17 29 -61 42 -29 8 -67 18 -84 21 -25 5 -32 13
-40 48 -6 22 -18 64 -26 93 -14 51 -16 63 -11 63 1 0 42 -11 91 -24z m1586 16
c0 -11 -48 -184 -52 -186 -3 -3 -59 -18 -124 -35 -52 -14 -68 -52 -36 -84 18
-18 24 -18 72 -7 28 7 53 10 55 8 4 -4 -13 -79 -20 -86 -5 -5 -163 -30 -260
-41 -55 -6 -119 -14 -142 -17 -41 -5 -43 -4 -63 35 -11 22 -20 43 -20 46 0 3
24 5 54 5 45 0 56 4 69 23 13 20 13 26 1 50 -14 26 -17 27 -104 27 l-89 0 -43
77 c-24 43 -44 81 -46 85 -2 5 41 8 96 8 l100 0 43 -75 c36 -64 46 -75 70 -75
17 0 32 8 42 23 14 22 14 27 -10 66 -14 23 -23 45 -20 47 3 3 30 8 61 11 62 6
64 4 46 -57 -8 -29 -7 -38 10 -54 16 -16 25 -18 47 -10 24 8 31 19 48 86 11
42 23 79 26 83 6 5 161 52 182 54 4 1 7 -2 7 -7z m-1748 -117 l24 -94 -61 -61
c-39 -39 -67 -59 -76 -55 -9 3 -24 40 -37 88 l-21 82 67 68 c36 37 69 67 73
67 3 0 17 -43 31 -95z m1921 27 l68 -68 -22 -82 c-13 -48 -28 -83 -37 -87 -11
-4 -36 14 -76 54 l-60 60 24 96 c13 52 27 95 30 95 3 0 36 -31 73 -68z m-958
-142 l46 -81 -41 -74 c-27 -49 -48 -75 -59 -75 -11 0 -32 27 -59 74 l-42 73
46 82 c25 44 50 81 54 81 5 0 29 -36 55 -80z m-1205 -40 c0 -13 -5 -17 -20
-13 -23 6 -25 14 -8 31 14 14 28 6 28 -18z m2340 0 c0 -4 -9 -10 -20 -13 -14
-4 -20 0 -20 12 0 10 3 21 7 24 7 7 33 -11 33 -23z m-2033 -96 c-1 -2 -13 -1
-25 3 -22 5 -22 6 -5 25 17 19 17 19 25 -3 5 -12 7 -23 5 -25z m1716 5 c-29
-12 -31 -10 -25 16 4 25 5 25 24 8 18 -16 18 -18 1 -24z m-1013 -79 c11 -21 4
-25 -24 -14 -8 3 -12 12 -9 20 7 20 20 17 33 -6z m313 6 c3 -8 -1 -17 -10 -20
-20 -8 -27 -1 -20 19 8 19 23 20 30 1z"/>
<path d="M5463 9483 l-53 -16 56 -60 c75 -81 51 -88 -30 -9 l-61 61 -132 -36
c-73 -20 -133 -39 -133 -42 0 -4 44 -50 98 -103 l97 -97 83 23 c49 14 85 20
88 14 8 -13 9 -12 -71 -33 -38 -10 -72 -20 -74 -22 -3 -2 20 -28 49 -58 31
-32 48 -55 39 -55 -8 0 -35 20 -59 45 -24 25 -47 45 -50 45 -4 0 -12 -25 -19
-55 -11 -50 -25 -74 -37 -63 -2 3 5 36 16 74 l19 69 -97 98 c-53 53 -99 97
-103 97 -3 0 -22 -60 -41 -132 l-36 -133 56 -57 c33 -34 50 -58 41 -58 -8 0
-33 18 -54 40 -21 22 -42 40 -46 40 -4 0 -13 -24 -20 -54 -13 -61 -24 -84 -35
-73 -4 4 0 35 10 68 9 34 15 63 13 65 -2 2 -36 -5 -76 -17 -70 -19 -96 -19
-75 0 5 4 42 17 83 27 53 13 76 24 82 39 16 37 71 247 66 252 -6 6 -248 -58
-264 -69 -6 -5 -19 -41 -28 -81 -10 -40 -21 -76 -26 -81 -19 -21 -19 5 0 75
12 40 19 74 17 77 -9 8 -123 -31 -175 -60 l-53 -31 33 -20 c88 -53 113 -71
101 -75 -7 -2 -44 15 -82 37 -37 23 -71 41 -75 41 -7 0 -214 -118 -233 -133
-9 -7 19 -28 105 -78 65 -38 122 -69 126 -69 5 0 39 18 77 40 73 43 80 45 80
31 0 -6 -30 -28 -66 -50 l-66 -39 67 -39 c40 -23 60 -39 50 -41 -8 -2 -40 10
-70 27 l-54 31 -3 -67 c-2 -42 -8 -68 -15 -71 -10 -3 -13 17 -13 76 l0 80
-115 66 c-63 36 -119 66 -125 66 -7 0 -10 -45 -8 -137 l3 -137 68 -42 c79 -49
74 -69 -6 -24 -29 16 -57 30 -60 30 -4 0 -7 -31 -7 -69 0 -39 -4 -73 -10 -76
-6 -4 -10 22 -10 69 0 42 -2 76 -4 76 -3 0 -32 -16 -65 -35 -32 -19 -64 -35
-70 -35 -26 0 -6 19 64 59 l75 42 0 144 0 144 -125 -72 -125 -72 0 -87 c0 -52
-4 -88 -10 -88 -6 0 -10 33 -10 80 l0 80 -42 -21 c-39 -20 -148 -114 -148
-128 0 -4 31 -15 70 -25 38 -9 72 -22 75 -27 9 -14 -24 -11 -100 11 l-70 19
-102 -102 -103 -101 138 -37 137 -38 62 62 c34 33 66 58 70 54 4 -4 -19 -33
-50 -65 l-57 -58 75 -19 c49 -12 72 -22 66 -28 -6 -6 -32 -4 -73 6 -34 9 -64
14 -67 12 -2 -3 3 -30 12 -61 16 -54 15 -80 -2 -69 -5 2 -14 31 -21 63 -7 33
-15 64 -19 71 -6 9 -244 81 -270 81 -4 0 9 -62 29 -137 l37 -137 77 -20 c54
-13 74 -22 67 -29 -7 -7 -29 -5 -71 6 -33 9 -61 17 -63 17 -2 0 5 -32 15 -71
13 -45 16 -75 10 -81 -6 -6 -15 14 -26 54 -9 35 -19 69 -22 77 -3 10 -22 -3
-62 -42 -32 -32 -61 -54 -65 -50 -4 4 20 35 54 69 l62 63 -33 128 c-18 70 -36
131 -39 135 -4 4 -51 -37 -105 -91 l-98 -98 21 -77 c24 -86 25 -96 12 -96 -5
0 -17 26 -26 58 -9 31 -19 65 -22 76 -4 16 -12 11 -53 -29 -27 -26 -60 -69
-74 -96 l-27 -48 77 -3 c50 -2 79 -7 81 -15 3 -9 -21 -13 -87 -15 l-92 -3 -69
-118 c-38 -65 -69 -120 -69 -123 0 -2 64 -3 142 -2 l142 3 41 69 c22 38 46 71
53 74 19 6 14 -8 -28 -78 l-38 -65 79 -3 c101 -4 96 -22 -6 -22 l-74 0 35 -61
c22 -37 32 -65 27 -70 -6 -6 -25 19 -49 61 l-39 70 -143 0 c-79 0 -141 -3
-139 -7 2 -5 35 -61 72 -125 l67 -118 79 0 c46 0 79 -4 79 -10 0 -6 -30 -10
-70 -10 -38 0 -70 -2 -70 -5 0 -3 14 -30 31 -60 17 -30 29 -62 27 -72 -2 -12
-16 5 -41 50 -21 37 -40 67 -42 67 -3 0 -21 -29 -42 -65 -35 -61 -53 -79 -53
-54 0 6 18 41 41 79 l41 69 -69 120 c-37 66 -71 120 -74 121 -7 0 -139 -226
-139 -239 0 -5 18 -40 40 -79 42 -73 46 -82 30 -82 -5 0 -26 29 -47 65 -20 36
-40 65 -43 65 -20 0 -100 -203 -86 -217 3 -3 34 2 70 11 75 18 86 19 86 7 0
-5 -38 -19 -85 -31 -96 -26 -83 -8 -129 -181 -14 -53 -26 -101 -26 -107 0 -12
262 55 270 69 3 5 14 42 25 84 12 49 23 75 32 75 10 0 12 -6 7 -22 -11 -34
-34 -122 -34 -130 0 -4 32 2 71 13 39 11 74 18 76 15 10 -9 -7 -24 -34 -30
-16 -4 -45 -12 -66 -17 l-38 -10 46 -51 c43 -47 54 -68 38 -68 -4 0 -32 25
-63 55 l-55 55 -138 -37 -138 -36 100 -101 100 -100 76 18 c42 10 79 15 83 11
10 -10 -14 -21 -74 -34 -30 -7 -54 -16 -54 -20 0 -4 20 -27 45 -51 25 -24 45
-51 45 -59 0 -9 -22 7 -53 37 -29 29 -55 52 -59 52 -3 0 -14 -32 -23 -70 -16
-67 -28 -89 -38 -73 -3 5 5 45 16 91 l22 82 -101 101 -100 100 -37 -138 -36
-138 59 -60 c33 -33 60 -64 60 -68 0 -19 -29 -2 -76 44 l-52 52 -12 -39 c-13
-42 -26 -204 -17 -204 3 0 32 16 64 35 56 34 83 43 83 28 0 -5 -34 -28 -75
-51 l-75 -44 0 -139 c0 -76 3 -139 6 -139 4 0 60 30 125 68 l119 67 0 88 c0
109 18 116 22 7 l3 -79 68 39 c46 27 67 35 67 25 0 -8 -27 -29 -60 -47 -33
-18 -60 -36 -60 -39 0 -3 22 -18 50 -33 27 -15 52 -32 56 -37 15 -25 -10 -19
-66 15 -34 20 -65 36 -70 36 -12 0 -240 -133 -240 -139 0 -3 54 -37 120 -74
l120 -69 48 28 c26 15 57 34 70 42 19 13 22 12 22 -1 0 -9 -25 -30 -55 -47
-30 -17 -55 -33 -55 -35 0 -2 25 -18 55 -35 30 -17 57 -36 61 -41 14 -24 -8
-19 -66 15 -33 20 -63 36 -66 36 -2 0 -4 -36 -4 -80 0 -47 -4 -80 -10 -80 -6
0 -10 36 -10 88 l0 88 -102 59 c-57 32 -113 65 -125 73 l-23 14 0 -143 0 -144
75 -43 c41 -24 75 -48 75 -53 0 -14 -9 -11 -76 26 -34 19 -65 35 -68 35 -12 0
-5 -113 10 -176 l17 -66 56 56 c31 31 60 56 64 56 20 0 1 -32 -52 -84 l-59
-58 35 -132 c19 -72 37 -133 39 -135 3 -3 49 39 103 93 l99 99 -19 71 c-11 39
-22 79 -25 89 -3 10 0 17 9 17 9 0 20 -26 32 -75 11 -41 22 -75 25 -75 3 0 28
22 55 50 26 27 53 47 58 43 5 -3 -15 -29 -44 -59 l-52 -53 25 -10 c14 -5 42
-13 62 -16 35 -7 54 -21 43 -31 -3 -3 -38 3 -79 15 l-73 20 -97 -97 c-54 -53
-98 -99 -98 -102 0 -3 60 -22 133 -41 l132 -36 55 53 c31 30 59 54 63 54 18 0
3 -28 -39 -71 l-46 -46 71 -18 c48 -11 71 -22 71 -32 0 -10 -6 -12 -22 -7 -46
14 -122 33 -125 31 -1 -2 7 -36 18 -76 11 -40 18 -75 15 -78 -12 -12 -25 12
-41 79 -10 40 -21 77 -25 81 -8 10 -262 78 -268 73 -4 -4 53 -218 67 -251 6
-15 29 -26 82 -39 41 -10 78 -23 83 -27 21 -19 -6 -19 -78 -1 -42 11 -76 18
-76 15 0 -23 39 -128 63 -171 l30 -54 20 34 c52 86 71 112 74 101 3 -7 -14
-46 -37 -88 l-41 -75 57 -97 c31 -54 63 -109 71 -122 14 -23 16 -21 84 95 38
66 69 122 69 126 0 3 -19 38 -41 78 -26 44 -38 75 -32 81 5 5 25 -19 50 -63
l41 -71 38 66 c37 64 54 82 54 55 0 -7 -16 -39 -35 -70 l-34 -58 63 0 c44 0
67 -5 76 -15 11 -13 2 -15 -72 -15 l-84 0 -71 -125 -72 -125 143 0 142 0 40
70 c37 66 54 85 54 58 0 -6 -13 -35 -30 -65 -16 -29 -30 -55 -30 -58 0 -3 34
-5 75 -5 43 0 75 -4 75 -10 0 -6 -32 -10 -75 -10 -41 0 -75 -2 -75 -4 0 -3 16
-32 35 -65 36 -61 42 -81 26 -81 -5 0 -28 34 -51 75 l-41 75 -144 0 -143 0 71
-125 72 -125 88 0 c51 0 87 -4 87 -10 0 -6 -34 -10 -81 -10 l-81 0 27 -47 c26
-45 112 -143 125 -143 3 0 14 32 24 70 12 46 23 70 33 70 8 0 12 -6 10 -12 -3
-7 -13 -46 -23 -86 l-18 -73 100 -100 100 -99 35 132 36 133 -58 60 c-53 55
-72 85 -52 85 4 0 33 -25 63 -55 l56 -56 19 76 c11 41 22 75 26 75 14 0 15
-25 4 -65 -7 -22 -15 -52 -19 -67 l-6 -27 64 19 c37 10 69 14 77 9 19 -11 13
-14 -69 -34 -40 -9 -75 -21 -78 -27 -7 -12 -74 -261 -71 -265 5 -4 262 68 268
75 4 4 14 39 24 77 21 80 23 84 34 67 4 -7 0 -42 -10 -78 -10 -35 -17 -64 -16
-64 1 0 32 9 68 19 39 11 72 15 80 10 19 -11 13 -14 -69 -34 l-74 -18 56 -56
c31 -31 56 -60 56 -64 0 -20 -30 -1 -85 52 l-60 58 -133 -35 -133 -36 100
-100 101 -101 72 19 c40 10 79 21 86 23 6 3 12 -2 12 -10 0 -10 -22 -20 -70
-32 -38 -9 -70 -20 -70 -24 0 -20 149 -141 174 -141 3 0 6 29 6 64 0 70 7 99
21 90 5 -3 9 -44 9 -92 l0 -87 125 -72 125 -71 0 143 0 144 -75 41 c-70 39
-92 60 -62 60 6 0 38 -16 70 -35 32 -19 60 -35 63 -35 2 0 4 36 4 81 0 51 4
78 10 74 6 -3 10 -40 10 -81 0 -41 2 -74 5 -74 3 0 27 14 53 30 47 29 82 38
82 23 0 -5 -32 -26 -70 -47 l-70 -39 0 -143 0 -142 125 71 125 72 0 84 c0 73
2 82 15 71 10 -8 15 -31 15 -71 0 -33 2 -59 5 -59 3 0 29 14 58 30 30 17 59
30 65 30 26 0 9 -18 -54 -54 l-66 -38 71 -41 c44 -25 68 -44 62 -50 -6 -6 -37
7 -83 33 l-73 42 -40 -21 c-22 -12 -78 -43 -124 -70 -97 -56 -105 -40 63 -135
l98 -56 71 40 c39 23 77 39 86 38 16 -4 -7 -21 -97 -75 l-34 -20 55 -31 c29
-17 74 -36 98 -42 24 -6 52 -13 61 -16 16 -5 15 0 -3 63 -22 79 -24 96 -7 91
6 -2 21 -38 32 -80 12 -42 24 -79 27 -83 8 -7 261 -77 265 -72 5 4 -66 261
-74 268 -4 4 -40 14 -80 24 -66 16 -91 29 -79 41 3 3 39 -4 81 -14 42 -11 76
-19 76 -18 0 0 -9 33 -20 71 -24 83 -23 75 -6 75 9 0 20 -25 31 -71 l18 -71
46 46 c43 42 71 57 71 39 0 -4 -24 -32 -54 -63 l-53 -55 35 -130 c19 -71 37
-132 39 -134 2 -3 48 39 102 93 l99 99 -19 68 c-22 80 -23 92 -7 87 6 -2 17
-26 25 -54 8 -27 16 -55 19 -63 3 -10 21 1 59 39 30 30 58 51 62 47 4 -4 -17
-32 -46 -61 -29 -30 -49 -56 -44 -58 4 -3 38 -13 76 -23 43 -12 67 -23 67 -32
0 -9 -7 -12 -17 -9 -10 3 -50 14 -89 25 l-71 19 -99 -99 c-54 -54 -96 -100
-93 -102 2 -2 63 -20 134 -39 l130 -35 60 58 c55 54 85 72 85 51 0 -4 -25 -32
-55 -62 l-55 -55 62 -17 c59 -17 178 -25 178 -12 0 3 -16 33 -35 65 -36 63
-42 79 -25 79 5 0 29 -34 52 -75 l43 -75 142 0 142 0 -72 125 -71 125 -88 0
c-52 0 -88 4 -88 10 0 6 33 10 80 10 44 0 80 2 80 4 0 3 -16 31 -35 63 -38 63
-41 73 -22 73 6 0 27 -28 46 -61 l33 -62 21 34 c11 19 26 44 34 57 7 12 20 22
28 22 10 0 2 -21 -26 -69 l-40 -70 66 -115 c37 -64 70 -118 73 -120 4 -2 38
49 75 115 l69 119 -36 64 c-40 71 -41 76 -23 76 6 0 26 -26 43 -57 l31 -56 35
59 c19 32 42 60 51 62 13 3 8 -13 -23 -65 l-39 -68 79 -3 c109 -4 102 -22 -7
-22 l-88 0 -72 -125 -71 -125 142 0 142 0 43 75 c39 69 61 92 61 64 0 -6 -16
-38 -35 -70 -19 -33 -35 -62 -35 -65 0 -10 117 -2 176 12 l66 17 -56 56 c-31
31 -56 60 -56 64 0 20 30 1 85 -52 l60 -59 130 36 c72 19 132 37 134 39 3 2
-39 48 -93 102 l-99 99 -83 -23 c-45 -13 -85 -20 -88 -17 -14 13 -2 20 62 37
37 10 71 20 75 23 5 2 -14 28 -43 57 -69 69 -48 83 24 15 l53 -50 13 60 c12
57 24 79 37 66 3 -3 -2 -37 -12 -75 l-17 -70 93 -101 c51 -55 96 -100 99 -100
4 0 23 60 42 133 l36 132 -54 55 c-30 31 -54 59 -54 63 0 18 29 3 71 -39 l47
-46 13 56 c12 56 32 96 43 86 3 -3 -3 -38 -13 -77 l-18 -70 74 19 c72 18 97
18 77 -1 -5 -6 -43 -18 -84 -28 l-75 -19 -36 -135 c-20 -74 -36 -135 -34 -137
1 -1 63 14 137 34 l135 36 17 72 c9 39 21 78 26 86 19 30 22 -2 6 -64 -9 -36
-16 -69 -16 -75 0 -15 108 18 166 51 30 16 54 31 54 33 0 2 -29 20 -65 40 -60
33 -81 55 -54 55 6 0 42 -18 80 -40 l69 -41 107 62 c60 34 114 67 121 74 9 8
-14 26 -100 75 -62 36 -118 66 -124 68 -6 2 -43 -16 -83 -39 -67 -38 -92 -45
-77 -20 4 6 34 26 68 45 68 38 72 29 -32 89 -32 19 -40 28 -28 32 8 3 41 -9
74 -29 l59 -34 3 69 c4 94 22 88 22 -8 l1 -78 118 -67 c66 -38 122 -68 125
-68 3 0 6 63 6 140 l0 139 -65 36 c-60 34 -81 55 -54 55 6 0 36 -14 65 -31
l54 -30 0 70 c0 38 5 73 10 76 6 4 10 -22 10 -69 0 -42 2 -76 5 -76 3 0 22 11
43 23 74 48 102 59 102 43 0 -8 -34 -33 -75 -56 l-75 -41 0 -140 c0 -76 3
-139 6 -139 4 0 60 30 125 67 l118 68 3 90 c4 111 22 120 26 13 2 -43 5 -78 8
-78 27 0 184 120 184 140 0 3 -34 14 -75 25 -50 12 -75 23 -75 33 0 8 6 12 13
9 6 -2 47 -13 90 -23 l78 -18 85 85 c47 46 89 91 94 100 8 14 -10 21 -123 52
l-132 36 -60 -60 c-55 -53 -85 -72 -85 -52 0 4 25 33 56 64 l56 56 -69 18
c-78 21 -82 23 -65 34 7 4 43 0 79 -10 61 -17 64 -17 58 -1 -14 37 -28 112
-22 119 11 10 16 0 36 -71 10 -37 20 -69 22 -70 2 -2 64 -20 138 -40 115 -30
132 -33 128 -18 -2 9 -19 71 -37 138 l-32 121 -74 19 c-41 10 -74 21 -74 25 0
15 25 15 77 0 29 -8 55 -12 57 -10 2 2 -3 32 -12 66 -9 34 -13 65 -9 70 12 11
23 -13 37 -79 l13 -59 56 55 c31 31 60 56 64 56 20 0 1 -30 -50 -82 l-58 -59
33 -127 c19 -70 36 -129 38 -131 3 -3 49 39 103 93 l99 98 -24 84 c-12 46 -19
86 -14 89 13 8 26 -21 40 -87 7 -32 16 -58 19 -58 14 0 100 98 126 143 l27 47
-81 0 c-47 0 -81 4 -81 10 0 6 36 10 88 10 l87 0 68 119 c37 65 67 121 67 125
0 3 -63 6 -139 6 l-140 0 -41 -75 c-39 -70 -60 -92 -60 -62 0 6 16 38 35 70
19 32 35 60 35 63 0 2 -32 4 -71 4 -52 0 -70 3 -67 13 3 7 29 13 72 15 l67 3
-30 52 c-17 30 -27 58 -22 65 4 7 21 -12 44 -53 l38 -65 139 0 c77 0 140 2
140 5 0 3 -30 57 -66 120 l-67 115 -80 0 c-69 0 -78 2 -67 15 8 10 31 15 71
15 l59 0 -30 53 c-16 30 -30 59 -30 65 0 26 17 9 49 -49 l34 -61 39 71 c36 65
58 88 58 60 0 -6 -18 -41 -40 -79 -22 -38 -40 -71 -40 -74 0 -12 133 -236 140
-236 5 0 34 46 66 103 31 56 62 109 67 118 7 12 -1 33 -32 85 -22 39 -41 76
-41 82 0 27 18 8 57 -59 l41 -70 30 54 c27 49 66 166 58 174 -2 2 -37 -5 -77
-17 -87 -24 -79 -23 -79 -7 0 9 29 21 75 32 42 11 80 22 85 25 12 7 83 260 76
268 -8 7 -249 -58 -262 -71 -6 -7 -19 -43 -29 -82 -10 -38 -22 -74 -26 -79
-19 -21 -19 6 -1 78 12 44 16 76 10 76 -5 0 -35 -7 -65 -16 -30 -9 -57 -13
-60 -11 -12 13 11 26 63 38 30 7 57 15 59 19 2 4 -14 24 -35 45 -22 22 -40 46
-40 54 0 9 23 -7 54 -38 l55 -54 128 33 c70 18 131 36 135 39 4 4 -37 51 -91
105 l-98 97 -60 -15 c-71 -19 -83 -19 -83 -7 0 6 27 18 60 27 l60 17 -45 48
c-62 66 -47 85 16 23 27 -26 50 -46 52 -43 2 2 9 25 15 51 17 69 31 100 41 93
6 -3 0 -41 -13 -89 l-24 -84 102 -101 102 -101 36 137 37 138 -61 62 c-34 34
-59 66 -55 70 4 4 34 -19 65 -50 l58 -57 18 67 c10 39 16 93 14 126 l-3 57
-69 -40 c-77 -45 -76 -45 -76 -27 0 6 34 32 75 55 l75 44 0 139 c0 76 -3 139
-6 139 -4 0 -60 -30 -125 -67 l-118 -68 -1 -87 c0 -115 -18 -126 -22 -13 l-3
85 -58 -35 c-65 -39 -67 -40 -67 -22 0 7 19 24 43 37 73 40 73 40 17 72 -27
15 -50 35 -50 43 0 10 17 5 59 -20 33 -19 64 -35 69 -35 17 0 241 133 237 140
-2 4 -56 37 -120 74 l-115 67 -65 -36 c-46 -26 -65 -33 -65 -22 0 7 23 26 50
41 28 15 50 29 50 31 0 2 -25 18 -55 35 -30 17 -55 38 -55 45 0 10 18 4 59
-20 33 -19 62 -35 65 -35 3 0 6 36 6 80 0 47 4 80 10 80 6 0 10 -36 10 -89 l0
-89 118 -67 c64 -37 120 -70 125 -72 4 -2 7 60 7 139 l0 143 -75 43 c-41 24
-75 48 -75 53 0 14 9 11 76 -26 34 -19 65 -35 68 -35 12 0 5 113 -10 176 l-17
66 -56 -56 c-31 -31 -60 -56 -64 -56 -20 0 -1 30 52 85 l59 60 -36 133 c-20
72 -39 132 -42 132 -3 0 -49 -44 -103 -98 l-97 -97 20 -70 c22 -76 25 -105 11
-105 -4 0 -16 30 -26 68 -10 37 -20 71 -23 75 -2 5 -26 -13 -53 -39 -27 -26
-52 -45 -56 -41 -4 4 14 29 40 55 26 26 47 50 47 53 0 3 -25 11 -55 18 -49 11
-74 25 -63 36 2 2 36 -4 75 -14 l71 -18 98 98 c54 54 96 100 93 103 -2 2 -64
20 -138 40 l-135 37 -53 -53 c-29 -29 -53 -46 -53 -38 0 8 18 33 40 56 l41 41
-66 17 c-38 11 -65 24 -65 31 0 11 15 9 67 -6 38 -10 69 -19 69 -19 1 0 -7 34
-18 76 -18 73 -18 99 1 78 5 -5 16 -42 26 -82 9 -40 21 -74 25 -77 12 -8 263
-75 267 -71 2 2 -13 64 -33 138 l-36 135 -74 19 c-81 20 -102 29 -91 40 4 4
41 -2 82 -14 68 -18 75 -19 71 -4 -3 9 -10 37 -16 62 -11 41 -66 150 -75 150
-3 0 -21 -29 -42 -65 -35 -61 -53 -79 -53 -54 0 6 18 42 40 79 l40 69 -71 126
-72 125 -68 -117 c-38 -65 -69 -124 -69 -131 0 -8 18 -45 41 -84 38 -65 45
-89 20 -74 -5 4 -25 33 -43 66 -18 33 -35 60 -38 60 -3 0 -21 -27 -39 -60 -23
-39 -38 -56 -42 -48 -7 11 3 33 49 106 14 22 14 22 -51 22 -94 0 -95 19 -1 22
l78 3 67 115 c37 63 68 118 68 123 1 4 -63 6 -141 5 l-142 -3 -37 -63 c-21
-36 -40 -59 -44 -52 -4 6 7 35 24 65 l31 55 -70 0 c-56 0 -70 3 -70 15 0 12
15 15 71 15 56 0 69 3 62 13 -30 38 -72 126 -64 132 6 3 30 -28 53 -70 l43
-75 143 0 144 0 -32 58 c-18 31 -49 85 -69 119 l-36 62 -88 3 c-107 4 -116 22
-12 26 41 2 75 5 75 9 0 18 -65 114 -103 151 l-44 44 -18 -74 c-10 -40 -21
-77 -26 -82 -20 -22 -19 7 2 88 l23 86 -99 100 c-54 55 -101 98 -102 96 -2 -2
-20 -63 -39 -136 l-35 -133 60 -61 c34 -34 61 -65 61 -69 0 -19 -31 -2 -75 43
-26 27 -52 47 -56 45 -3 -3 -10 -21 -14 -41 -9 -53 -24 -86 -34 -80 -5 3 -2
32 6 66 9 34 13 63 10 66 -3 3 -29 -2 -58 -10 -34 -11 -56 -13 -63 -6 -11 11
-9 11 79 35 l60 16 37 137 c20 75 35 138 35 138 -1 1 -63 -15 -137 -35 l-135
-36 -18 -60 c-10 -33 -20 -66 -23 -74 -3 -9 -8 -11 -14 -5 -6 6 -3 30 6 62 9
30 13 56 10 59 -3 4 -34 -1 -68 -11 -38 -11 -65 -13 -71 -7 -5 5 13 15 50 25
32 10 64 19 72 22 10 3 -1 20 -37 57 -47 48 -64 77 -45 77 4 0 35 -28 69 -61
l62 -62 124 33 c67 18 129 36 135 39 8 4 -22 42 -86 105 l-99 99 -84 -21 c-48
-12 -87 -17 -92 -12 -8 8 41 25 127 46 l29 7 -44 44 c-37 38 -133 103 -151
103 -4 0 -7 -35 -9 -77 -4 -108 -22 -99 -26 12 l-3 90 -62 36 c-34 20 -88 51
-119 69 l-58 32 0 -144 0 -143 75 -43 c41 -24 72 -48 69 -53 -5 -8 -95 35
-131 64 -10 7 -13 -7 -13 -68 0 -57 -3 -76 -12 -73 -8 3 -15 32 -18 76 l-5 71
-47 -29 c-46 -29 -85 -40 -73 -21 3 6 32 25 65 43 l60 33 0 142 c0 79 -2 143
-4 143 -3 0 -58 -31 -123 -69 l-118 -69 -3 -81 c-3 -100 -22 -100 -22 -1 l0
69 -59 -34 c-33 -19 -64 -35 -70 -35 -24 0 -8 17 49 49 33 19 60 38 60 41 0 3
-27 20 -60 38 -33 18 -62 38 -66 43 -15 25 10 17 82 -24 l77 -45 121 70 c66
39 122 72 124 73 1 1 -54 34 -122 74 l-124 71 -70 -40 c-38 -22 -74 -40 -81
-40 -26 0 -6 18 67 59 42 24 72 46 67 48 -31 10 -230 62 -232 60 -1 -2 5 -30
14 -65 15 -60 12 -99 -6 -88 -5 3 -16 36 -25 74 -10 37 -21 74 -25 81 -8 13
-251 84 -259 76 -4 -4 43 -190 58 -230 5 -13 21 -26 37 -29 90 -22 133 -39
133 -51 0 -23 -13 -24 -83 -5 -75 21 -75 21 -52 -54 19 -63 19 -69 -4 -56 -13
6 -24 30 -32 65 -7 30 -15 55 -19 55 -3 0 -23 -18 -44 -39 -23 -24 -44 -37
-53 -34 -11 4 0 20 38 59 l52 53 -34 130 c-18 72 -36 131 -39 131 -3 0 -48
-42 -99 -94 l-94 -94 17 -66 c20 -79 20 -87 2 -80 -8 3 -19 26 -26 52 -7 26
-16 50 -19 54 -4 5 -25 -10 -46 -32 -25 -26 -48 -40 -64 -40 -24 0 -22 4 28
54 l53 53 -71 19 c-55 14 -71 22 -71 36 0 22 7 22 100 -2 l75 -19 92 91 c51
51 91 93 89 95 -2 2 -61 19 -131 39 l-129 35 -61 -61 c-33 -33 -64 -60 -68
-60 -19 0 -2 29 44 76 l51 52 -55 16 c-53 15 -167 22 -167 10 0 -3 15 -31 33
-62 31 -53 37 -82 17 -82 -5 0 -28 34 -51 75 l-43 75 -139 0 -139 0 20 -32
c11 -18 41 -70 67 -115 l47 -83 89 0 c82 0 89 -1 89 -20 0 -18 -7 -20 -75 -20
-72 0 -85 -5 -67 -25 5 -6 21 -31 36 -57 25 -45 26 -48 7 -48 -13 0 -29 18
-50 55 -17 30 -33 55 -36 55 -2 0 -16 -22 -32 -50 -18 -31 -35 -50 -46 -50
-16 0 -15 7 14 58 18 31 36 62 40 67 7 9 -119 245 -131 245 -3 0 -36 -52 -73
-116 l-67 -116 26 -47 c15 -25 34 -56 42 -68 13 -21 13 -23 -5 -23 -13 0 -29
16 -47 50 -15 28 -31 48 -36 45 -5 -3 -21 -28 -36 -55 -18 -33 -34 -50 -46
-50 -17 0 -15 7 17 65 l37 65 -76 0 c-69 0 -76 2 -76 20 0 18 7 20 88 20 l87
0 67 115 67 115 -138 0 -139 0 -43 -75 c-23 -41 -46 -75 -50 -75 -22 0 -17 27
15 81 20 33 36 62 36 65 0 10 -130 1 -177 -13z m107 -30 c0 -5 -8 -20 -18 -35
l-18 -28 -28 29 c-25 26 -26 30 -9 34 30 8 73 8 73 0z m294 -40 c-15 -27 -35
-60 -43 -75 -15 -26 -20 -27 -104 -30 -84 -3 -89 -4 -105 -30 -16 -26 -16 -30
0 -55 14 -24 24 -28 67 -31 28 -2 51 -5 51 -8 0 -3 -11 -25 -25 -49 l-26 -43
-100 -13 -100 -12 -40 39 -40 39 53 13 c29 8 56 19 60 25 13 21 9 53 -10 70
-16 15 -24 14 -101 -5 l-83 -21 -70 70 -69 70 93 25 93 25 65 -62 c59 -57 67
-62 90 -53 14 6 41 10 62 9 35 -2 37 0 79 74 l43 75 94 0 94 0 -28 -47z m454
-28 c42 -74 44 -76 80 -74 20 1 49 -3 63 -9 24 -10 31 -6 88 52 l62 63 86 -23
c47 -13 87 -25 89 -27 2 -2 -25 -31 -59 -65 l-62 -61 -85 24 c-90 25 -104 23
-120 -20 -14 -39 7 -72 56 -84 24 -6 44 -15 44 -19 0 -5 -15 -22 -33 -40 l-32
-31 -98 12 -99 12 -24 40 c-13 22 -24 43 -24 48 0 4 23 7 50 7 48 0 52 2 65
32 11 28 11 37 -1 60 -14 26 -17 27 -105 30 l-90 3 -40 73 -41 72 94 0 93 0
43 -75z m156 66 c3 -4 -5 -18 -17 -29 l-22 -21 -17 30 -17 29 34 0 c19 0 36
-4 39 -9z m-435 -126 c23 -42 41 -79 39 -83 -22 -52 -76 -132 -88 -132 -15 0
-90 115 -90 137 0 14 81 153 89 153 4 0 26 -34 50 -75z m-1035 -27 c-4 -13
-15 -54 -25 -91 -10 -38 -20 -71 -23 -74 -3 -3 -40 -15 -83 -27 -67 -19 -79
-25 -87 -49 -8 -22 -6 -31 10 -48 19 -18 25 -19 67 -9 25 7 50 10 55 9 5 -2 2
-26 -7 -54 l-16 -49 -93 -39 -93 -40 -40 18 c-63 29 -66 40 -17 67 35 19 44
29 46 55 2 23 -3 35 -19 47 -21 14 -25 14 -53 -3 -17 -10 -51 -30 -76 -44
l-45 -26 -83 46 c-45 26 -82 49 -82 52 0 3 37 27 83 53 l82 47 30 -18 c17 -9
51 -29 76 -44 l46 -27 26 20 c14 11 34 20 44 20 33 0 50 23 68 95 10 39 21 74
25 78 6 7 160 54 183 56 5 1 5 -9 1 -21z m2156 -38 c3 -5 14 -43 24 -84 18
-69 22 -76 48 -81 16 -4 32 -4 35 -1 3 3 19 -2 35 -10 28 -15 32 -14 99 25 39
23 75 41 80 41 10 0 169 -89 169 -95 0 -4 -161 -95 -169 -95 -3 0 -37 18 -76
40 -62 37 -72 40 -97 29 -22 -9 -28 -18 -28 -43 0 -27 6 -34 45 -55 25 -13 45
-27 45 -31 0 -5 -21 -20 -46 -35 l-45 -27 -97 39 -96 39 -12 48 -12 48 36 -7
c62 -13 74 -11 94 16 18 24 19 30 7 55 -12 23 -26 31 -94 48 l-79 21 -23 80
c-12 44 -23 83 -23 87 0 9 173 -40 180 -52z m-1981 -35 c33 -36 61 -73 61 -83
0 -9 -8 -44 -18 -77 -25 -82 -48 -85 -117 -15 l-49 50 23 95 c14 52 28 95 32
95 3 0 34 -29 68 -65z m1720 -29 l22 -80 -59 -59 c-53 -52 -60 -57 -74 -44 -8
9 -23 46 -32 83 l-17 67 63 64 c34 34 65 59 69 55 4 -4 17 -43 28 -86z m-2208
-19 l-10 -27 -37 22 -36 21 23 18 c52 39 81 23 60 -34z m2655 43 l28 -11 -34
-20 c-35 -22 -50 -15 -50 24 0 19 17 22 56 7z m-1498 -108 c2 -7 -5 -12 -17
-12 -14 0 -19 5 -14 15 6 17 25 15 31 -3z m309 -8 c-9 -9 -28 6 -21 18 4 6 10
6 17 -1 6 -6 8 -13 4 -17z m-818 -48 c9 -10 8 -15 -4 -20 -10 -4 -15 1 -15 14
0 24 4 25 19 6z m1321 -7 c0 -5 -7 -9 -15 -9 -15 0 -20 12 -9 23 8 8 24 -1 24
-14z m-280 -44 c548 -69 1030 -268 1485 -614 126 -95 429 -396 525 -521 294
-382 498 -821 585 -1257 134 -670 55 -1326 -231 -1923 -333 -695 -919 -1242
-1634 -1523 -215 -85 -510 -158 -760 -189 -136 -17 -554 -17 -690 0 -847 105
-1585 532 -2092 1210 -308 412 -501 893 -574 1427 -25 179 -25 579 -1 755 79
568 280 1049 627 1500 94 122 388 416 510 510 384 296 821 498 1275 589 92 19
291 45 410 55 100 8 443 -4 565 -19z m-1336 -46 c-11 -18 -32 -9 -27 11 4 16
8 18 19 9 8 -6 11 -15 8 -20z m1916 11 c0 -5 -4 -10 -10 -10 -5 0 -10 5 -10
10 0 6 5 10 10 10 6 0 10 -4 10 -10z m740 -107 l0 -98 -68 -37 c-91 -50 -102
-43 -102 61 l0 79 78 46 c42 25 80 46 85 46 4 0 7 -44 7 -97z m200 51 l80 -46
0 -89 c0 -88 0 -90 27 -102 16 -6 37 -23 49 -36 l21 -25 84 22 83 23 68 -68
c37 -37 64 -70 60 -73 -4 -4 -45 -17 -91 -29 l-84 -23 -62 62 c-58 58 -65 62
-91 53 -48 -16 -48 -51 -2 -99 44 -46 44 -45 -23 -63 l-46 -13 -87 67 -86 66
0 55 c0 30 3 54 6 54 3 0 28 -12 54 -27 46 -26 49 -26 74 -10 16 11 26 27 26
42 0 20 -14 33 -80 71 l-80 46 0 94 c0 59 4 94 10 94 6 0 47 -21 90 -46z
m-3720 -63 l0 -99 -75 -43 c-65 -37 -75 -46 -75 -71 0 -20 7 -31 28 -42 25
-13 31 -12 67 10 22 13 43 24 48 24 4 0 7 -26 7 -57 l-1 -58 -60 -45 c-34 -25
-70 -51 -80 -59 -16 -12 -29 -12 -74 -2 -30 7 -55 16 -55 20 0 4 16 23 35 41
44 43 44 78 1 99 -28 13 -30 12 -92 -50 l-64 -63 -87 23 c-49 12 -90 25 -92
27 -3 3 26 35 63 73 l68 69 84 -23 83 -24 24 27 c13 15 30 28 37 30 34 8 40
25 40 111 l1 86 82 47 c45 26 83 48 85 48 1 0 2 -44 2 -99z m193 51 l78 -44
-3 -86 c-4 -106 -10 -109 -100 -55 l-63 38 -3 99 c-1 54 1 96 5 94 5 -1 43
-23 86 -46z m3054 -128 c-2 -2 -12 -1 -22 2 -17 7 -17 8 1 21 17 12 19 12 22
-2 2 -9 2 -19 -1 -21z m711 -7 c24 -25 24 -25 3 -31 -66 -19 -61 -21 -61 29 0
40 2 45 18 36 9 -5 28 -20 40 -34z m-4228 -18 l0 -41 -37 7 c-21 4 -40 9 -43
12 -6 6 57 63 70 63 6 0 10 -19 10 -41z m669 32 c11 -7 9 -11 -8 -20 -18 -10
-21 -9 -21 9 0 22 7 25 29 11z m3119 -161 c-2 -6 -8 -6 -18 0 -13 9 -13 11 0
20 15 10 25 0 18 -20z m-3383 1 c3 -6 -4 -15 -15 -21 -17 -9 -20 -8 -20 10 0
20 24 28 35 11z m4095 -207 c0 -16 -43 -170 -49 -177 -4 -4 -38 -16 -76 -27
-62 -18 -70 -18 -86 -4 -16 14 -16 19 1 85 10 39 21 74 25 77 7 7 151 50 173
51 6 1 12 -2 12 -5z m-4723 -34 l80 -21 21 -77 c19 -66 20 -79 7 -91 -12 -12
-23 -12 -82 4 -37 10 -73 23 -80 29 -10 9 -53 157 -53 181 0 4 6 5 13 2 8 -3
50 -15 94 -27z m4942 -210 l-22 -83 24 -21 c13 -12 30 -33 36 -49 12 -27 14
-27 102 -27 l89 0 47 -82 c26 -46 50 -86 52 -90 2 -5 -41 -8 -95 -8 l-100 0
-43 75 c-40 70 -45 75 -76 75 -26 0 -36 -6 -44 -24 -9 -20 -7 -31 15 -68 14
-25 26 -48 26 -51 0 -4 -24 -7 -52 -7 l-53 0 -67 88 c-66 87 -67 89 -57 128
18 71 17 70 62 27 34 -32 47 -39 67 -34 15 4 29 18 34 34 9 25 5 32 -52 90
l-63 63 21 80 c12 43 23 86 26 93 3 10 27 -7 75 -56 l71 -70 -23 -83z m-5120
111 l22 -85 -61 -61 c-54 -55 -60 -64 -54 -92 5 -25 12 -32 37 -37 26 -5 36
-1 67 29 20 19 38 35 41 35 3 0 11 -24 18 -54 l12 -54 -62 -81 -62 -81 -59 0
c-32 0 -58 2 -58 5 0 3 12 24 26 47 35 56 25 92 -26 96 -34 2 -36 0 -75 -70
l-40 -73 -98 -3 c-53 -1 -97 0 -97 4 0 4 21 43 46 86 l46 78 88 0 88 0 13 32
c7 18 25 42 38 54 l25 21 -22 84 -23 83 68 68 c37 37 70 64 73 60 4 -4 17 -45
29 -91z m4601 55 c0 -2 -3 -12 -6 -20 -5 -13 -9 -14 -20 -5 -16 13 -9 29 12
29 8 0 14 -2 14 -4z m-4193 -30 c-6 -17 -31 -13 -35 6 -2 12 2 15 18 11 11 -3
19 -11 17 -17z m4844 -214 c-23 -2 -45 -2 -47 0 -2 2 2 21 8 42 l12 38 36 -38
35 -39 -44 -3z m-5486 11 c7 -33 7 -33 -34 -33 -49 0 -53 15 -14 60 29 35 35
31 48 -27z m5055 3 c0 -8 -4 -17 -9 -21 -12 -7 -24 12 -16 25 9 15 25 12 25
-4z m-4630 -16 c0 -4 -6 -13 -14 -19 -11 -9 -15 -8 -20 5 -10 26 -7 32 14 27
11 -3 20 -9 20 -13z m4938 -391 c-2 -6 -8 -10 -13 -10 -5 0 -11 4 -13 10 -2 6
4 11 13 11 9 0 15 -5 13 -11z m273 -71 l-49 -83 -77 0 c-102 0 -112 13 -71 88
45 80 38 77 147 77 l99 0 -49 -82z m-5638 5 c53 -93 48 -103 -58 -103 l-84 0
-43 77 c-24 43 -44 81 -46 85 -2 5 41 8 95 8 l98 0 38 -67z m116 50 c-7 -10
-14 -20 -15 -21 -1 -2 -7 6 -14 17 -10 19 -8 21 16 21 24 0 25 -2 13 -17z
m5705 -101 c25 -43 46 -84 46 -91 0 -7 -18 -44 -41 -83 l-41 -70 21 -29 c12
-15 21 -36 21 -46 0 -33 16 -43 91 -64 41 -12 77 -24 82 -28 4 -4 18 -46 31
-94 l24 -87 -21 1 c-12 0 -55 10 -96 22 l-75 22 -20 75 c-12 41 -24 80 -28 86
-14 21 -56 22 -74 2 -15 -16 -16 -25 -6 -70 7 -28 10 -53 8 -55 -7 -7 -74 8
-89 21 -7 6 -31 53 -52 105 l-38 93 21 44 c12 24 25 44 29 44 5 0 20 -20 35
-45 22 -35 33 -45 54 -45 26 0 53 23 54 47 0 6 -18 43 -41 82 l-41 71 48 85
c26 47 49 85 50 85 1 0 23 -35 48 -78z m-6089 -29 c19 -34 35 -67 35 -74 0 -6
-18 -43 -40 -82 -38 -66 -40 -71 -25 -93 10 -16 25 -24 44 -24 24 0 34 8 53
43 13 23 28 42 33 41 6 0 21 -21 34 -46 l24 -45 -35 -89 c-38 -94 -50 -106
-120 -119 l-37 -7 14 53 c14 50 13 55 -6 75 -16 17 -27 20 -47 15 -27 -8 -29
-11 -61 -137 l-11 -42 -91 -22 c-49 -12 -92 -21 -94 -18 -4 4 2 33 31 135 l14
51 75 18 c92 22 95 24 98 59 1 16 10 37 20 47 25 26 22 42 -24 118 l-41 69 49
86 c54 96 48 97 108 -12z m5789 -128 c-4 -8 -10 -12 -15 -9 -14 8 -10 24 6 24
9 0 12 -6 9 -15z m-5564 -15 c-6 -11 -13 -20 -15 -20 -2 0 -9 9 -15 20 -9 18
-8 20 15 20 23 0 24 -2 15 -20z m6010 -118 c-5 -2 -26 2 -45 8 l-35 11 22 42
21 42 23 -50 c13 -27 19 -51 14 -53z m-6424 47 c8 -17 12 -35 7 -39 -10 -10
-73 -24 -73 -16 0 16 33 86 41 86 5 0 16 -14 25 -31z m6174 -379 c0 -5 -4 -12
-10 -15 -5 -3 -10 -4 -10 -1 0 2 -3 12 -6 20 -5 12 -2 15 10 10 9 -3 16 -10
16 -14z m-5947 -10 c-6 -24 -16 -25 -32 -6 -9 11 -9 15 1 19 27 11 36 7 31
-13z m6254 -64 c1 -1 -29 -33 -67 -71 l-69 -69 -53 13 c-119 31 -126 47 -47
127 l51 52 92 -25 c50 -14 92 -26 93 -27z m-6352 -16 c74 -75 70 -86 -40 -115
l-77 -20 -63 70 c-35 38 -62 71 -60 73 2 2 161 49 175 51 3 1 32 -26 65 -59z
m6456 -155 l23 -95 -61 -63 c-36 -37 -59 -68 -56 -77 3 -8 7 -22 10 -30 3 -8
5 -29 4 -47 -2 -30 2 -34 73 -75 l76 -43 0 -97 c0 -54 -2 -98 -5 -98 -3 0 -42
21 -85 46 l-80 46 0 89 c0 86 -1 90 -25 101 -19 8 -31 8 -50 0 -22 -10 -25
-18 -25 -67 0 -31 -4 -55 -10 -55 -6 0 -28 11 -49 24 l-38 24 -13 112 -13 111
33 34 c18 19 36 32 40 30 4 -3 13 -26 20 -52 6 -26 17 -51 23 -55 21 -13 53
-9 70 10 14 15 13 25 -8 102 l-23 85 66 68 c37 37 70 67 73 67 4 0 17 -43 30
-95z m-6702 14 l64 -69 -22 -81 -23 -82 21 -20 c17 -17 26 -19 48 -11 21 7 30
20 43 62 l15 53 43 -44 43 -43 -12 -98 -12 -98 -39 -25 c-67 -42 -68 -41 -68
20 0 48 -3 57 -26 72 -23 15 -27 15 -50 0 -22 -14 -24 -21 -24 -103 l0 -88
-32 -17 c-18 -9 -57 -30 -85 -47 l-53 -32 0 100 0 101 76 43 c73 41 75 44 73
78 -2 19 1 48 5 63 8 26 3 35 -53 91 l-61 62 14 49 c8 28 20 69 26 93 6 23 14
41 18 41 4 -1 36 -32 71 -70z m257 -106 c-7 -7 -36 16 -36 27 0 5 8 10 18 12
16 3 31 -27 18 -39z m6114 38 c0 -6 -4 -13 -10 -16 -5 -3 -10 1 -10 9 0 9 5
16 10 16 6 0 10 -4 10 -9z m399 -224 l1 -38 -40 22 -40 23 32 33 c29 30 33 32
40 16 3 -10 7 -35 7 -56z m-6869 1 c0 -7 -52 -38 -65 -38 -7 0 -6 65 1 85 6
14 11 12 35 -11 16 -15 29 -31 29 -36z m300 -288 c0 -21 -16 -26 -39 -11 -11
7 -10 11 5 20 27 15 34 14 34 -9z m6232 5 c0 -5 -5 -11 -11 -13 -6 -2 -11 4
-11 13 0 9 5 15 11 13 6 -2 11 -8 11 -13z m221 -118 c37 -22 66 -41 65 -42 -2
-1 -40 -24 -85 -50 l-83 -47 -65 37 c-55 30 -65 40 -65 63 0 23 10 33 63 63
69 40 59 42 170 -24z m-6531 13 c89 -53 88 -66 -2 -119 l-71 -40 -86 51 -86
50 84 49 c46 27 86 49 88 49 3 0 35 -18 73 -40z m6648 -240 l0 -100 -75 -42
c-74 -42 -76 -44 -73 -80 1 -20 -1 -40 -5 -44 -18 -19 -2 -52 52 -109 l59 -61
-24 -88 c-13 -49 -26 -91 -29 -94 -3 -3 -36 24 -74 62 l-68 67 23 84 22 83
-21 20 c-15 14 -31 19 -48 15 -22 -4 -28 -13 -38 -59 -7 -30 -16 -54 -20 -54
-4 0 -22 15 -40 34 l-34 35 13 110 14 111 42 25 c23 14 45 25 48 25 3 0 6 -26
6 -58 0 -54 2 -60 26 -71 22 -10 31 -9 50 4 22 14 24 22 24 103 l0 87 83 47
c45 26 83 48 85 48 1 0 2 -45 2 -100z m-6847 42 l77 -43 0 -90 c0 -86 1 -90
25 -101 19 -8 31 -8 50 0 23 10 25 17 25 71 l0 60 54 -31 53 -31 13 -99 12
-100 -43 -44 -44 -44 -14 52 c-8 29 -19 56 -25 60 -19 13 -52 8 -69 -10 -15
-16 -15 -24 6 -100 l21 -83 -70 -70 -71 -71 -25 94 -26 93 60 62 c54 54 60 65
54 90 -4 15 -7 44 -6 65 1 35 -2 38 -75 79 l-75 43 0 99 c0 54 3 97 8 95 4 -1
42 -22 85 -46z m277 -17 c0 -28 -3 -29 -31 -14 -20 10 -20 11 -2 24 26 20 33
18 33 -10z m6237 8 c2 -6 -3 -13 -12 -16 -10 -5 -15 0 -15 14 0 21 21 22 27 2z
m-6559 -330 c-29 -30 -33 -32 -40 -16 -3 10 -7 35 -7 56 l-1 38 40 -22 40 -23
-32 -33z m6892 40 c0 -60 -12 -68 -45 -33 -16 16 -27 31 -24 33 18 15 55 37
61 37 5 0 8 -17 8 -37z m-6507 -213 c4 -16 0 -20 -19 -20 -26 0 -30 10 -12 28
17 17 25 15 31 -8z m6106 6 c9 -10 8 -15 -4 -20 -10 -4 -15 1 -15 14 0 24 4
25 19 6z m-6071 -160 c3 -12 -16 -38 -53 -76 l-57 -57 -91 24 c-51 14 -94 27
-96 29 -3 3 26 35 63 73 l68 69 81 -22 c62 -16 83 -26 85 -40z m6237 -6 c47
-47 64 -71 54 -74 -8 -3 -49 -15 -93 -26 l-79 -22 -53 53 c-54 54 -65 78 -41
97 11 9 106 39 132 41 6 1 42 -30 80 -69z m-6188 -166 c-1 -2 -13 -1 -25 3
-22 5 -22 6 -5 25 17 19 17 19 25 -3 5 -12 7 -23 5 -25z m5946 21 c0 -6 -7
-11 -16 -13 -12 -3 -15 1 -11 13 7 17 25 17 27 0z m-6229 -49 c48 -14 91 -28
94 -31 4 -4 16 -41 28 -83 17 -66 24 -78 47 -86 22 -8 31 -6 48 11 20 20 21
23 6 74 -9 29 -15 55 -13 56 1 2 29 -5 60 -14 l57 -18 39 -93 39 -93 -27 -50
c-15 -27 -30 -49 -34 -49 -3 0 -18 21 -33 46 -24 40 -30 45 -58 42 -23 -2 -34
-10 -40 -28 -7 -20 -1 -39 33 -97 l41 -71 -47 -81 c-26 -45 -50 -81 -53 -81
-3 0 -28 37 -54 81 l-47 82 44 76 c41 70 44 78 30 96 -15 21 -16 24 -30 69 -8
27 -16 32 -84 49 -41 10 -79 22 -83 27 -8 7 -56 164 -57 183 0 9 -8 11 94 -17z
m6566 21 c0 -20 -52 -182 -60 -187 -6 -4 -45 -15 -85 -25 -68 -17 -75 -21 -81
-49 -3 -16 -14 -42 -24 -58 -18 -30 -18 -30 26 -106 l43 -76 -36 -66 c-49 -87
-57 -100 -64 -100 -3 0 -27 38 -52 84 l-47 83 40 69 c43 74 47 89 26 117 -26
33 -59 21 -91 -33 -32 -55 -41 -54 -69 7 -17 38 -17 38 23 133 41 99 52 111
118 125 l31 6 -14 -57 c-15 -54 -14 -58 4 -77 16 -16 25 -18 48 -10 24 8 30
19 48 85 12 42 25 80 29 85 15 15 187 62 187 50z m-84 -313 c-3 -9 -6 -21 -6
-27 0 -7 -9 -23 -19 -36 l-19 -25 -21 41 -20 41 37 10 c52 14 55 14 48 -4z
m-6415 -11 c5 -5 -1 -23 -13 -41 -18 -28 -23 -31 -35 -20 -7 8 -18 29 -23 47
l-9 34 36 -6 c20 -4 40 -10 44 -14z m403 -109 c9 -23 8 -24 -14 -24 -11 0 -20
2 -20 4 0 12 13 36 20 36 4 0 11 -7 14 -16z m5566 -10 c0 -8 -7 -14 -15 -14
-17 0 -18 2 -9 24 7 18 24 12 24 -10z m112 -189 c26 -44 47 -83 48 -87 0 -5
-44 -8 -97 -8 l-98 0 -39 66 c-33 57 -37 70 -27 91 10 23 15 24 88 21 l77 -3
48 -80z m-5599 62 c3 -8 -13 -46 -35 -85 l-40 -72 -100 0 c-55 0 -98 4 -96 8
2 5 23 43 47 85 l45 77 87 0 c63 0 88 -4 92 -13z m87 -148 c0 -5 -11 -9 -25
-9 -23 0 -24 2 -15 21 9 16 14 18 26 8 8 -6 14 -15 14 -20z m5244 6 c4 -10 -1
-15 -14 -15 -20 0 -26 11 -13 23 10 11 20 8 27 -8z m-22 -115 l27 0 -28 -48
c-26 -45 -27 -51 -14 -75 10 -19 21 -27 41 -27 24 0 34 10 71 75 l42 75 101 0
100 0 -38 -67 c-20 -38 -42 -76 -48 -85 -9 -15 -26 -18 -97 -18 -81 0 -88 -2
-103 -25 -9 -14 -14 -25 -10 -25 3 0 -8 -11 -24 -25 l-30 -25 23 -84 23 -84
-72 -71 -71 -71 -26 94 -26 95 63 62 c54 53 61 64 55 88 -5 16 -18 30 -34 35
-24 9 -32 5 -67 -29 -46 -45 -55 -41 -66 31 -6 40 -3 46 56 120 72 91 78 96
105 89 11 -2 32 -5 47 -5z m-5341 -75 c37 -64 47 -75 70 -75 17 0 32 9 43 25
16 24 15 27 -13 72 l-30 48 62 3 c58 3 63 1 82 -24 11 -15 39 -51 63 -80 l42
-53 -17 -61 -16 -61 -43 42 c-34 33 -46 40 -65 34 -57 -18 -51 -57 20 -130
l59 -60 -26 -93 -25 -93 -72 71 -72 71 23 84 c21 79 21 84 5 99 -10 9 -24 16
-31 16 -7 0 -11 3 -7 6 3 4 0 19 -9 35 -14 29 -16 29 -102 29 -72 0 -89 3 -98
18 -6 9 -28 47 -48 85 l-38 67 100 0 101 0 42 -75z m423 -216 c-3 -5 -13 -9
-23 -9 -14 0 -17 6 -13 25 4 24 5 25 23 9 10 -9 16 -21 13 -25z m4636 -1 c0
-5 -9 -8 -20 -8 -23 0 -26 10 -8 28 9 9 14 9 20 -1 4 -6 8 -15 8 -19z m-5063
-24 l-11 -46 -33 36 c-18 19 -33 40 -33 46 0 5 20 10 44 10 l43 0 -10 -46z
m5523 37 c0 -12 -49 -71 -60 -71 -4 0 -12 18 -18 40 l-10 40 44 0 c24 0 44 -4
44 -9z m-5004 -196 c-10 -41 -22 -77 -27 -81 -13 -7 -182 -54 -186 -51 -1 2 9
46 23 98 l26 95 76 20 c105 29 112 22 88 -81z m4572 60 c5 -4 53 -188 50 -190
-2 -2 -45 9 -97 24 l-95 26 -19 73 c-19 67 -19 73 -3 91 16 18 18 18 89 -2 39
-10 73 -20 75 -22z m-4450 -77 c17 -17 15 -25 -8 -31 -16 -4 -20 0 -20 19 0
26 10 30 28 12z m4195 -8 c4 -16 0 -20 -20 -20 -25 0 -26 0 -8 20 10 11 19 20
20 20 2 0 5 -9 8 -20z m-4003 -152 l80 -61 0 -64 c0 -49 -3 -62 -12 -57 -7 4
-30 18 -51 31 -35 22 -39 22 -62 7 -16 -11 -25 -26 -25 -43 0 -23 11 -33 75
-70 l75 -42 0 -101 0 -100 -67 38 c-38 20 -76 42 -85 48 -15 9 -18 26 -18 97
0 82 -1 88 -25 103 -14 9 -30 14 -35 11 -6 -3 -10 0 -10 8 0 8 -8 21 -17 29
-16 15 -26 14 -100 -5 l-83 -22 -70 70 c-38 38 -68 70 -67 72 2 1 44 13 94 27
l91 24 58 -59 c71 -72 114 -78 129 -19 5 20 -2 33 -35 65 l-41 40 53 17 c29 9
56 17 60 17 4 1 43 -27 88 -61z m3927 46 l55 -16 -40 -42 c-33 -33 -40 -46
-35 -68 4 -20 13 -29 35 -33 27 -6 37 -1 92 54 l61 60 89 -24 c49 -13 90 -26
92 -28 2 -2 -28 -34 -66 -72 l-70 -69 -82 22 c-76 20 -84 20 -100 5 -10 -9
-18 -22 -18 -30 0 -8 -4 -11 -10 -8 -5 3 -21 -2 -35 -11 -24 -15 -25 -21 -25
-103 l0 -87 -77 -45 c-43 -24 -81 -45 -85 -47 -5 -2 -8 41 -8 96 l0 101 75 42
c65 37 75 47 75 71 0 18 -8 33 -24 43 -21 14 -26 14 -67 -10 -24 -13 -47 -25
-51 -25 -5 0 -8 24 -8 54 l0 55 83 64 c45 36 84 66 85 66 2 1 29 -6 59 -15z
m-3723 -190 c22 -8 20 -21 -4 -34 -18 -9 -20 -8 -20 15 0 27 1 28 24 19z
m3393 -30 c-2 -2 -12 -1 -22 2 -17 7 -17 8 1 21 17 12 19 12 22 -2 2 -9 2 -19
-1 -21z m-3263 -50 c25 -9 23 -175 -1 -190 -10 -6 -48 -28 -85 -48 l-68 -38 0
100 0 100 68 40 c37 22 68 41 69 41 1 1 8 -2 17 -5z m3245 -64 c20 -14 22 -21
19 -112 l-3 -97 -82 47 -83 47 0 82 c0 117 18 121 149 33z m-3769 -5 c0 -25
-4 -45 -10 -45 -5 0 -26 14 -46 32 l-36 32 38 12 c22 7 42 12 47 13 4 1 7 -19
7 -44z m4233 25 c17 -5 15 -10 -17 -38 -20 -18 -41 -32 -46 -32 -6 0 -10 20
-10 45 0 44 1 45 28 39 15 -4 35 -10 45 -14z m-3557 -41 c3 -6 0 -15 -7 -20
-22 -14 -29 -11 -29 11 0 21 24 27 36 9z m2844 -9 c0 -22 -8 -25 -30 -10 -13
9 -13 11 0 20 22 15 30 12 30 -10z m-2629 -89 l94 -39 16 -53 c10 -31 13 -55
7 -58 -5 -1 -30 2 -55 9 -42 10 -48 9 -67 -9 -16 -17 -18 -26 -10 -48 8 -23
19 -29 84 -46 41 -10 79 -22 83 -26 10 -10 58 -183 53 -188 -2 -2 -28 3 -57
11 -30 8 -72 20 -94 25 -41 11 -41 11 -60 87 -20 82 -35 104 -67 104 -11 0
-32 9 -47 19 l-27 20 -77 -45 -76 -44 -86 51 -87 51 86 50 86 49 76 -41 c65
-37 79 -41 100 -31 18 8 24 19 24 40 0 25 -8 35 -45 57 -25 14 -45 29 -45 32
0 5 85 59 96 62 1 0 44 -18 95 -39z m2530 8 l50 -32 -50 -28 c-44 -25 -51 -34
-51 -59 0 -22 6 -33 24 -41 21 -10 35 -6 100 31 l76 42 83 -48 c45 -26 83 -48
85 -49 2 -2 -35 -26 -83 -54 l-86 -51 -76 45 -76 44 -28 -19 c-15 -11 -35 -20
-46 -20 -33 0 -44 -16 -64 -96 -12 -43 -22 -80 -24 -82 -4 -5 -188 -53 -191
-50 -4 5 45 181 53 188 4 4 40 15 78 25 39 10 76 23 83 28 18 14 15 51 -7 71
-16 15 -25 15 -65 5 -26 -6 -49 -9 -53 -6 -3 3 0 28 7 55 l11 49 97 41 c53 22
98 41 99 41 2 1 26 -13 54 -30z m-2288 -98 c17 -6 17 -8 -2 -25 -12 -11 -21
-14 -21 -8 0 6 -3 17 -6 26 -7 17 0 19 29 7z m1922 -21 c-5 -17 -10 -19 -21
-9 -19 15 -18 27 4 31 23 6 25 3 17 -22z m-1739 -106 l22 -82 -69 -68 c-38
-37 -71 -66 -73 -63 -3 3 -16 45 -30 95 l-24 89 57 58 c77 79 90 76 117 -29z
m1647 28 l56 -57 -24 -89 c-13 -49 -26 -90 -28 -92 -2 -2 -34 28 -72 66 l-69
70 19 72 c27 108 38 111 118 30z m-1514 12 c5 -5 -20 -34 -29 -34 -4 0 -10 11
-12 25 -5 22 -3 25 16 19 11 -4 23 -8 25 -10z m1304 -14 c-3 -11 -6 -20 -8
-20 -1 0 -10 9 -20 20 -18 20 -17 20 8 20 20 0 24 -4 20 -20z m-1063 -21 l86
-11 31 -52 32 -51 -60 -3 c-52 -3 -61 -6 -71 -27 -8 -19 -8 -32 0 -50 11 -24
15 -25 100 -25 l89 0 47 -80 c25 -44 46 -82 46 -85 0 -3 -45 -5 -99 -5 l-100
0 -41 75 c-40 73 -43 76 -78 75 -21 0 -50 2 -67 5 -27 6 -37 0 -89 -53 l-58
-60 -91 24 c-50 14 -93 27 -96 30 -3 2 26 36 64 74 l70 69 85 -24 c83 -23 86
-24 104 -6 13 14 16 27 12 48 -6 27 -13 32 -61 43 -30 7 -55 16 -55 19 0 15
77 81 94 81 11 0 59 -5 106 -11z m942 -26 c21 -20 38 -40 38 -43 0 -4 -25 -13
-55 -20 -48 -11 -55 -16 -61 -43 -4 -22 -1 -34 12 -47 18 -18 22 -18 105 5
l87 23 68 -69 c37 -38 66 -71 63 -73 -3 -3 -46 -16 -96 -30 l-91 -24 -58 60
c-52 53 -62 59 -89 53 -16 -3 -46 -5 -65 -5 -34 1 -38 -3 -79 -75 l-42 -75
-101 0 c-55 0 -98 4 -96 8 2 5 23 43 47 85 l45 77 87 0 c86 0 89 1 103 27 12
24 12 30 -1 50 -13 19 -24 23 -69 23 -30 0 -54 3 -54 6 0 4 12 28 26 54 l26
48 76 10 c130 16 132 16 174 -25z m-694 -19 c-11 -24 -13 -25 -25 -8 -19 26
-16 34 12 34 23 0 24 -2 13 -26z m322 18 c0 -5 -6 -16 -13 -26 -12 -17 -14
-16 -25 8 -11 24 -10 26 13 26 14 0 25 -4 25 -8z m-117 -74 l38 -67 -50 -86
c-56 -99 -41 -102 -116 23 l-37 63 42 70 c53 90 69 90 123 -3z m-1356 -31 c5
-36 5 -36 -23 -28 -75 23 -80 32 -32 61 37 23 46 17 55 -33z m2672 14 c11 -7
8 -12 -15 -24 -16 -8 -40 -18 -53 -22 -23 -7 -23 -6 -16 31 4 22 9 42 11 46 5
7 37 -7 73 -31z m-1800 -269 c-12 -2 -37 -1 -57 3 l-35 6 34 35 33 34 23 -37
23 -38 -21 -3z m918 6 c-6 -4 -31 -8 -55 -8 l-43 0 23 40 23 39 32 -31 c24
-23 29 -34 20 -40z"/>
<path d="M6305 8942 c-27 -10 -87 -44 -133 -75 l-83 -57 35 -15 c51 -22 59
-20 130 29 75 51 128 64 178 43 31 -13 38 -13 71 5 20 10 37 20 37 23 0 2 -20
16 -44 30 -59 34 -127 41 -191 17z"/>
<path d="M5425 8916 c-54 -25 -85 -56 -159 -153 -51 -68 -48 -79 17 -68 37 6
47 14 84 65 49 69 108 105 159 97 26 -4 37 0 58 22 14 15 26 30 26 34 0 9 -70
27 -105 27 -16 0 -52 -11 -80 -24z"/>
<path d="M5657 8842 l-26 -27 42 -27 c133 -82 246 -106 363 -77 l45 12 -49 27
c-35 19 -70 29 -117 32 -51 5 -85 15 -143 44 -43 22 -79 40 -82 42 -3 1 -18
-10 -33 -26z"/>
<path d="M6563 8815 c-18 -8 -33 -18 -33 -24 0 -16 100 -120 145 -151 52 -36
152 -70 203 -70 l39 0 -41 43 c-23 24 -59 49 -81 56 -55 19 -116 62 -162 115
-38 44 -38 45 -70 31z"/>
<path d="M7125 8695 c-27 -8 -78 -23 -113 -32 l-63 -16 28 -23 c44 -36 59 -38
142 -14 89 26 135 22 179 -15 23 -19 36 -23 70 -18 23 3 42 8 42 10 0 17 -48
67 -85 89 -55 32 -132 39 -200 19z"/>
<path d="M4610 8634 c-45 -20 -87 -59 -111 -107 -21 -41 -79 -200 -75 -204 1
-2 23 4 47 12 42 15 45 18 68 83 13 37 32 79 43 95 21 30 66 57 95 57 11 0 24
15 35 40 l17 40 -42 0 c-23 -1 -58 -8 -77 -16z"/>
<path d="M5098 8627 c-74 -27 -157 -28 -258 -2 -21 5 -28 1 -43 -24 -22 -38
-22 -37 16 -50 103 -37 250 -30 343 15 80 38 83 48 19 60 -31 5 -64 6 -77 1z"/>
<path d="M7388 8503 c-25 -6 -23 -18 17 -101 51 -108 140 -194 237 -231 l27
-10 -22 48 c-12 26 -49 74 -83 106 -42 42 -69 80 -89 127 -31 69 -38 74 -87
61z"/>
<path d="M4401 8239 c-29 -5 -66 -18 -82 -29 -49 -36 -120 -62 -187 -70 -68
-9 -82 -19 -82 -61 0 -25 2 -26 53 -22 128 10 217 45 294 115 35 33 75 82 61
77 -2 -1 -27 -5 -57 -10z"/>
<path d="M7751 8184 l28 -42 96 -4 c104 -4 132 -17 170 -75 15 -24 29 -32 58
-35 44 -4 47 6 16 70 -43 87 -116 118 -301 124 l-96 4 29 -42z"/>
<path d="M3902 8099 c-45 -23 -82 -64 -103 -114 -12 -30 -29 -265 -19 -265 3
0 22 14 43 31 35 29 37 33 37 92 0 90 15 131 61 170 28 25 42 45 46 71 7 43
-3 45 -65 15z"/>
<path d="M8077 7898 c10 -132 46 -220 120 -299 25 -27 49 -49 52 -49 19 0 -5
94 -41 166 -29 59 -42 99 -47 148 -8 72 -18 86 -62 86 -25 0 -26 -2 -22 -52z"/>
<path d="M3785 7632 c-27 -14 -54 -32 -59 -41 -21 -38 -109 -111 -165 -137
-59 -27 -61 -29 -61 -66 0 -26 4 -38 14 -38 37 0 176 83 225 135 44 46 112
161 100 168 -2 2 -26 -8 -54 -21z"/>
<path d="M8334 7563 c16 -63 29 -76 99 -99 104 -35 157 -84 157 -143 0 -14 13
-27 40 -41 l40 -20 0 45 c0 115 -70 188 -230 240 -30 10 -68 24 -84 32 l-29
15 7 -29z"/>
<path d="M3377 7368 c-15 -11 -40 -41 -55 -66 -37 -64 -36 -144 2 -264 16 -49
30 -88 32 -88 2 0 15 18 30 39 l25 39 -20 67 c-12 37 -21 80 -21 97 0 32 21
78 45 98 11 9 14 22 9 49 -9 49 -15 53 -47 29z"/>
<path d="M8571 7187 c-42 -128 -27 -288 37 -385 l16 -25 13 57 c8 35 9 64 4
79 -18 48 -21 132 -7 197 7 36 12 68 9 73 -2 4 -17 14 -33 22 -28 15 -29 14
-39 -18z"/>
<path d="M3383 6858 c-22 -24 -44 -56 -47 -73 -11 -45 -62 -120 -114 -165
l-45 -41 16 -35 17 -35 28 20 c98 69 180 204 189 311 3 33 4 60 1 60 -2 0 -22
-19 -45 -42z"/>
<path d="M8705 6769 c-15 -46 3 -82 61 -124 83 -59 109 -97 110 -162 0 -42 6
-59 25 -79 22 -23 25 -24 36 -8 19 26 26 96 14 141 -15 57 -47 100 -111 150
-30 24 -72 57 -92 73 -36 29 -37 29 -43 9z"/>
<path d="M3078 6479 c-53 -82 -46 -174 23 -275 22 -33 50 -74 61 -92 23 -37
31 -33 48 29 8 26 3 39 -35 95 -52 76 -63 121 -43 173 14 35 14 41 -4 74 -10
21 -20 37 -21 37 -1 0 -14 -18 -29 -41z"/>
<path d="M8801 6314 c-56 -88 -75 -150 -75 -249 -1 -49 3 -99 7 -110 7 -16 12
-12 37 33 20 34 30 65 30 92 0 48 30 137 59 179 27 38 26 52 -3 80 l-25 23
-30 -48z"/>
<path d="M3248 6010 c-20 -36 -28 -64 -28 -100 0 -58 -28 -145 -61 -191 -21
-29 -21 -34 -8 -58 24 -43 45 -38 79 21 63 110 86 247 57 340 l-12 37 -27 -49z"/>
<path d="M8806 5873 l-16 -47 44 -66 c69 -100 80 -144 51 -200 -14 -26 -13
-33 2 -65 9 -19 19 -35 22 -35 14 0 51 70 62 116 15 65 -5 135 -61 214 -22 30
-49 72 -60 93 -11 20 -22 37 -24 37 -2 0 -11 -21 -20 -47z"/>
<path d="M3076 5573 c-36 -124 1 -204 143 -311 l81 -61 0 49 c0 48 -1 50 -54
89 -76 57 -101 95 -101 156 0 41 -5 54 -25 72 -30 27 -37 28 -44 6z"/>
<path d="M8737 5410 c-78 -72 -132 -171 -143 -260 l-7 -55 44 39 c24 22 49 55
56 73 17 48 67 116 112 155 l40 34 -18 39 -17 38 -67 -63z"/>
<path d="M3384 5186 c-11 -29 -9 -106 5 -170 12 -58 8 -136 -10 -184 -7 -19
-4 -26 23 -42 18 -11 35 -16 39 -12 14 16 29 106 29 179 0 85 -25 178 -60 223
-17 23 -19 24 -26 6z"/>
<path d="M8636 5019 c-31 -36 -31 -50 -1 -159 22 -77 15 -128 -20 -162 -25
-23 -33 -70 -17 -95 12 -19 69 23 99 75 37 62 35 142 -4 275 l-30 99 -27 -33z"/>
<path d="M3353 4659 c6 -72 38 -126 97 -165 33 -22 221 -98 226 -91 1 1 -5 23
-12 48 -13 43 -16 46 -71 63 -103 32 -163 85 -163 143 0 16 -11 28 -41 43
l-42 20 6 -61z"/>
<path d="M8415 4591 c-56 -28 -97 -56 -132 -94 -47 -50 -100 -133 -90 -143 12
-12 100 40 141 84 27 29 73 62 111 81 64 32 65 33 65 72 0 21 -3 39 -7 39 -5
0 -44 -18 -88 -39z"/>
<path d="M3767 4378 c4 -35 16 -66 35 -92 30 -41 52 -108 63 -187 6 -46 19
-58 63 -59 30 0 5 166 -39 252 -21 41 -105 138 -120 138 -4 0 -5 -24 -2 -52z"/>
<path d="M8205 4251 l-40 -27 -5 -94 c-6 -108 -23 -148 -76 -176 -29 -16 -44
-45 -44 -85 0 -17 36 -9 87 21 41 24 57 40 79 87 25 49 29 73 34 177 3 67 6
122 5 123 0 1 -18 -11 -40 -26z"/>
<path d="M3880 3944 c0 -11 14 -42 30 -71 24 -41 40 -57 86 -79 50 -24 72 -28
172 -32 125 -5 120 -8 80 51 -18 25 -24 27 -96 27 -94 0 -150 24 -178 75 -12
24 -26 35 -40 35 -13 0 -29 3 -38 6 -11 4 -16 0 -16 -12z"/>
<path d="M7801 3904 c-74 -20 -141 -58 -191 -109 l-43 -44 59 6 c39 4 73 15
102 34 42 26 90 41 180 54 23 4 42 12 42 18 0 7 3 22 6 35 6 21 4 22 -47 21
-30 0 -78 -7 -108 -15z"/>
<path d="M4374 3770 c13 -28 46 -70 79 -100 37 -34 68 -74 88 -116 28 -57 35
-64 61 -64 42 0 44 21 10 95 -47 100 -139 188 -234 224 l-27 10 23 -49z"/>
<path d="M7560 3658 c-47 -13 -54 -22 -79 -100 -32 -98 -81 -148 -143 -148
-17 0 -28 -9 -38 -32 -7 -18 -16 -37 -18 -42 -3 -5 22 -7 57 -3 107 9 181 80
218 207 8 30 24 72 34 93 11 20 16 37 12 36 -5 0 -24 -5 -43 -11z"/>
<path d="M6940 3443 c-46 -16 -130 -57 -130 -62 0 -4 23 -12 50 -17 39 -8 64
-7 108 4 47 12 71 13 137 3 77 -11 81 -10 98 10 27 34 21 45 -34 57 -51 12
-201 15 -229 5z"/>
<path d="M4626 3401 c-18 -7 -16 -12 24 -54 32 -36 56 -51 97 -63 62 -18 84
-16 221 24 l94 26 -34 28 c-40 33 -48 34 -123 8 -32 -11 -74 -20 -93 -20 -39
0 -101 27 -109 47 -6 14 -46 16 -77 4z"/>
<path d="M5147 3369 c27 -28 61 -51 93 -62 32 -12 73 -39 114 -77 61 -57 65
-59 95 -49 17 6 31 15 31 21 0 5 -29 39 -64 74 -76 76 -162 120 -251 130 l-60
7 42 -44z"/>
<path d="M6660 3228 c-62 -85 -89 -103 -156 -104 -46 0 -60 -5 -81 -27 l-27
-26 30 -12 c16 -7 54 -12 84 -13 69 -1 132 33 186 102 21 26 55 68 77 95 l38
47 -53 0 -53 -1 -45 -61z"/>
<path d="M6005 3274 c-47 -12 -48 -15 -4 -43 34 -21 62 -29 113 -33 52 -5 85
-14 136 -41 l68 -35 26 27 26 27 -53 32 c-28 17 -72 39 -97 47 -46 17 -178 28
-215 19z"/>
<path d="M5795 3174 c-44 -36 -125 -74 -157 -74 -16 0 -43 7 -60 16 -28 15
-33 14 -64 -2 -19 -10 -34 -21 -34 -24 0 -11 70 -49 109 -60 48 -13 100 -5
154 22 47 23 171 107 175 118 3 9 -52 30 -77 30 -9 -1 -29 -12 -46 -26z"/>
<path d="M7705 10083 c-11 -2 -60 -17 -110 -33 -49 -16 -109 -32 -132 -36 -24
-4 -43 -9 -43 -13 0 -10 68 -61 83 -61 7 0 53 14 103 31 114 39 225 49 287 25
24 -9 63 -36 87 -61 44 -45 77 -56 109 -36 12 8 10 17 -14 51 -39 57 -107 107
-168 125 -47 14 -156 18 -202 8z"/>
<path d="M3952 9999 c-139 -27 -234 -134 -292 -329 -12 -41 -33 -97 -47 -124
l-25 -49 39 8 c62 11 70 20 104 122 41 126 70 184 115 229 43 43 82 60 153 70
44 6 54 11 67 36 8 16 12 33 9 38 -7 12 -62 11 -123 -1z"/>
<path d="M8590 9359 c0 -3 10 -21 23 -40 l23 -34 140 -6 c121 -5 147 -9 194
-31 66 -30 113 -76 137 -134 14 -33 24 -44 47 -48 55 -11 56 -10 42 39 -42
138 -140 219 -296 244 -73 12 -310 19 -310 10z"/>
<path d="M2889 9204 c-105 -31 -191 -118 -225 -227 -14 -45 -37 -373 -27 -386
1 -2 20 8 42 22 l38 26 5 143 c4 127 7 149 30 198 30 67 77 114 134 136 38 14
43 21 49 56 4 22 5 41 3 42 -1 2 -24 -3 -49 -10z"/>
<path d="M9500 8389 c0 -7 5 -29 11 -50 11 -36 14 -38 108 -69 123 -41 181
-71 227 -116 43 -43 60 -82 70 -151 5 -45 10 -52 40 -67 32 -15 35 -15 41 0 3
9 1 47 -4 85 -26 162 -112 247 -324 315 -46 14 -101 35 -121 45 -43 22 -48 23
-48 8z"/>
<path d="M2038 8076 c-134 -102 -160 -252 -84 -483 20 -62 36 -124 36 -138 0
-14 4 -25 8 -25 15 0 62 56 62 73 0 9 -14 59 -30 109 -36 110 -49 227 -30 284
7 21 35 62 62 90 45 48 49 55 43 88 -4 20 -11 36 -15 36 -4 0 -27 -16 -52 -34z"/>
<path d="M10065 7178 c-15 -57 -3 -81 65 -130 107 -79 138 -107 170 -152 44
-65 57 -123 42 -193 -12 -56 -11 -58 15 -85 15 -16 30 -25 35 -20 4 4 15 36
24 72 39 153 -22 281 -196 408 -41 30 -92 71 -112 90 l-37 35 -6 -25z"/>
<path d="M1597 6758 c-53 -78 -74 -162 -59 -241 14 -76 55 -160 123 -252 28
-38 60 -88 71 -109 19 -37 21 -39 34 -21 8 10 17 33 20 52 6 29 -1 43 -55 118
-88 120 -116 184 -116 265 0 53 5 74 29 115 l29 51 -20 38 -19 38 -37 -54z"/>
<path d="M10218 5837 c-18 -50 -18 -51 52 -147 80 -110 104 -165 104 -245 1
-60 -3 -77 -28 -119 -28 -47 -28 -50 -12 -82 8 -19 19 -34 23 -34 12 0 49 58
74 115 17 37 23 68 22 120 0 91 -26 158 -103 266 -33 46 -70 103 -82 127 -12
23 -25 42 -28 42 -3 0 -13 -19 -22 -43z"/>
<path d="M1579 5363 c-8 -27 -14 -77 -13 -113 1 -120 62 -214 204 -318 41 -30
93 -72 116 -94 l41 -39 7 46 c3 26 3 51 0 57 -3 5 -48 40 -98 78 -167 122
-220 221 -186 340 9 30 7 37 -17 62 -15 15 -30 28 -34 28 -3 0 -13 -21 -20
-47z"/>
<path d="M9961 4542 l-33 -43 36 -115 c46 -147 48 -225 11 -301 -15 -28 -41
-62 -58 -76 -29 -22 -32 -29 -29 -66 2 -22 6 -41 9 -41 17 0 104 76 126 109
68 102 73 221 17 394 -17 54 -34 116 -38 139 l-7 42 -34 -42z"/>
<path d="M1995 4061 c-10 -33 13 -139 41 -192 50 -91 120 -138 299 -199 66
-23 130 -48 143 -56 12 -8 22 -13 22 -11 0 2 -7 26 -15 54 l-15 50 -114 37
c-186 62 -254 121 -279 246 -10 48 -19 65 -38 76 -32 18 -37 17 -44 -5z"/>
<path d="M9308 3383 l-38 -26 0 -111 c0 -194 -37 -284 -142 -340 -48 -26 -59
-37 -64 -64 -4 -18 -4 -35 -1 -39 10 -9 94 24 140 56 53 36 101 105 123 176
15 47 36 376 24 374 -3 0 -22 -12 -42 -26z"/>
<path d="M2790 2932 c0 -5 7 -28 15 -51 34 -98 115 -175 220 -207 39 -12 367
-37 383 -28 1 0 -11 20 -28 42 l-30 42 -113 0 c-190 0 -281 36 -337 133 -16
28 -31 55 -32 59 -5 11 -78 21 -78 10z"/>
<path d="M8330 2486 c-37 -14 -39 -17 -95 -176 -47 -136 -127 -214 -233 -227
-44 -5 -51 -9 -65 -38 -15 -31 -15 -33 5 -38 28 -8 135 11 172 30 96 48 157
132 207 281 18 53 40 116 50 140 20 46 17 49 -41 28z"/>
<path d="M3912 2103 c-22 -4 -22 -5 9 -48 39 -55 100 -98 168 -120 75 -25 178
-16 319 29 63 20 122 36 133 36 10 0 19 4 19 9 0 11 -58 61 -70 61 -5 0 -59
-16 -120 -35 -143 -45 -222 -47 -299 -9 -29 15 -62 39 -73 55 -21 28 -35 32
-86 22z"/>
<path d="M7022 1848 c-72 -97 -121 -147 -173 -174 -40 -20 -124 -29 -169 -17
-31 7 -38 5 -63 -19 -26 -25 -27 -27 -10 -36 10 -6 46 -15 79 -22 144 -28 266
38 393 213 32 45 71 93 85 106 31 29 21 41 -36 41 -36 0 -41 -4 -106 -92z"/>
<path d="M5748 1776 c-18 -12 -63 -44 -100 -70 -127 -89 -224 -107 -321 -58
-52 26 -57 27 -86 13 -17 -8 -30 -20 -28 -25 6 -21 110 -75 163 -86 101 -21
204 12 339 109 44 31 97 68 118 80 20 12 37 24 37 26 0 2 -20 10 -45 18 -42
15 -46 15 -77 -7z"/>
</g>
</svg>
